<?xml version="1.0" encoding="UTF-8" standalone="no"?>
<!DOCTYPE svg PUBLIC "-//W3C//DTD SVG 1.1//EN"
 "http://www.w3.org/Graphics/SVG/1.1/DTD/svg11.dtd">
<!-- Generated by graphviz version 2.38.0 (20140413.2041)
 -->
<!-- Title: G Pages: 1 -->
<svg width="1697pt" height="1181pt"
 viewBox="0.00 0.00 1696.88 1180.73" xmlns="http://www.w3.org/2000/svg" xmlns:xlink="http://www.w3.org/1999/xlink">
<g id="graph0" class="graph" transform="scale(1 1) rotate(0) translate(4 1176.73)">
<title>G</title>
<polygon fill="white" stroke="none" points="-4,4 -4,-1176.73 1692.88,-1176.73 1692.88,4 -4,4"/>
<g id="clust1" class="cluster"><title>cluster_Global</title>
<path fill="none" stroke="gray" d="M942.863,-212.732C942.863,-212.732 1668.88,-212.732 1668.88,-212.732 1674.88,-212.732 1680.88,-218.732 1680.88,-224.732 1680.88,-224.732 1680.88,-1152.73 1680.88,-1152.73 1680.88,-1158.73 1674.88,-1164.73 1668.88,-1164.73 1668.88,-1164.73 942.863,-1164.73 942.863,-1164.73 936.863,-1164.73 930.863,-1158.73 930.863,-1152.73 930.863,-1152.73 930.863,-224.732 930.863,-224.732 930.863,-218.732 936.863,-212.732 942.863,-212.732"/>
<text text-anchor="middle" x="1305.87" y="-1151.93" font-family="Times New Roman,serif" font-size="11.00" fill="gray">Global</text>
</g>
<g id="clust2" class="cluster"><title>cluster_\Slothsoft</title>
<path fill="none" stroke="gray" d="M950.863,-220.732C950.863,-220.732 1660.88,-220.732 1660.88,-220.732 1666.88,-220.732 1672.88,-226.732 1672.88,-232.732 1672.88,-232.732 1672.88,-1124.73 1672.88,-1124.73 1672.88,-1130.73 1666.88,-1136.73 1660.88,-1136.73 1660.88,-1136.73 950.863,-1136.73 950.863,-1136.73 944.863,-1136.73 938.863,-1130.73 938.863,-1124.73 938.863,-1124.73 938.863,-232.732 938.863,-232.732 938.863,-226.732 944.863,-220.732 950.863,-220.732"/>
<text text-anchor="middle" x="1305.87" y="-1123.93" font-family="Times New Roman,serif" font-size="11.00" fill="gray">Slothsoft</text>
</g>
<g id="clust3" class="cluster"><title>cluster_\Slothsoft\Amber</title>
<path fill="none" stroke="gray" d="M958.863,-228.732C958.863,-228.732 1652.88,-228.732 1652.88,-228.732 1658.88,-228.732 1664.88,-234.732 1664.88,-240.732 1664.88,-240.732 1664.88,-1096.73 1664.88,-1096.73 1664.88,-1102.73 1658.88,-1108.73 1652.88,-1108.73 1652.88,-1108.73 958.863,-1108.73 958.863,-1108.73 952.863,-1108.73 946.863,-1102.73 946.863,-1096.73 946.863,-1096.73 946.863,-240.732 946.863,-240.732 946.863,-234.732 952.863,-228.732 958.863,-228.732"/>
<text text-anchor="middle" x="1305.87" y="-1095.93" font-family="Times New Roman,serif" font-size="11.00" fill="gray">Amber</text>
</g>
<g id="clust4" class="cluster"><title>cluster_\Slothsoft\Amber\Controller</title>
<path fill="none" stroke="gray" d="M1500.88,-1008.73C1500.88,-1008.73 1617.88,-1008.73 1617.88,-1008.73 1623.88,-1008.73 1629.88,-1014.73 1629.88,-1020.73 1629.88,-1020.73 1629.88,-1068.73 1629.88,-1068.73 1629.88,-1074.73 1623.88,-1080.73 1617.88,-1080.73 1617.88,-1080.73 1500.88,-1080.73 1500.88,-1080.73 1494.88,-1080.73 1488.88,-1074.73 1488.88,-1068.73 1488.88,-1068.73 1488.88,-1020.73 1488.88,-1020.73 1488.88,-1014.73 1494.88,-1008.73 1500.88,-1008.73"/>
<text text-anchor="middle" x="1559.38" y="-1067.93" font-family="Times New Roman,serif" font-size="11.00" fill="gray">Controller</text>
</g>
<g id="clust5" class="cluster"><title>cluster_\Slothsoft\Amber\ResourceAssets</title>
<path fill="none" stroke="gray" d="M966.863,-766.732C966.863,-766.732 1644.88,-766.732 1644.88,-766.732 1650.88,-766.732 1656.88,-772.732 1656.88,-778.732 1656.88,-778.732 1656.88,-988.732 1656.88,-988.732 1656.88,-994.732 1650.88,-1000.73 1644.88,-1000.73 1644.88,-1000.73 966.863,-1000.73 966.863,-1000.73 960.863,-1000.73 954.863,-994.732 954.863,-988.732 954.863,-988.732 954.863,-778.732 954.863,-778.732 954.863,-772.732 960.863,-766.732 966.863,-766.732"/>
<text text-anchor="middle" x="1305.87" y="-987.932" font-family="Times New Roman,serif" font-size="11.00" fill="gray">ResourceAssets</text>
</g>
<g id="clust6" class="cluster"><title>cluster_\Slothsoft\Amber\SavegameImplementations</title>
<path fill="none" stroke="gray" d="M1484.38,-632.732C1484.38,-632.732 1634.38,-632.732 1634.38,-632.732 1640.38,-632.732 1646.38,-638.732 1646.38,-644.732 1646.38,-644.732 1646.38,-746.732 1646.38,-746.732 1646.38,-752.732 1640.38,-758.732 1634.38,-758.732 1634.38,-758.732 1484.38,-758.732 1484.38,-758.732 1478.38,-758.732 1472.38,-752.732 1472.38,-746.732 1472.38,-746.732 1472.38,-644.732 1472.38,-644.732 1472.38,-638.732 1478.38,-632.732 1484.38,-632.732"/>
<text text-anchor="middle" x="1559.38" y="-745.932" font-family="Times New Roman,serif" font-size="11.00" fill="gray">SavegameImplementations</text>
</g>
<g id="clust7" class="cluster"><title>cluster_\Slothsoft\Amber\CLI</title>
<path fill="none" stroke="gray" d="M1531.38,-498.732C1531.38,-498.732 1587.38,-498.732 1587.38,-498.732 1593.38,-498.732 1599.38,-504.732 1599.38,-510.732 1599.38,-510.732 1599.38,-612.732 1599.38,-612.732 1599.38,-618.732 1593.38,-624.732 1587.38,-624.732 1587.38,-624.732 1531.38,-624.732 1531.38,-624.732 1525.38,-624.732 1519.38,-618.732 1519.38,-612.732 1519.38,-612.732 1519.38,-510.732 1519.38,-510.732 1519.38,-504.732 1525.38,-498.732 1531.38,-498.732"/>
<text text-anchor="middle" x="1559.38" y="-611.932" font-family="Times New Roman,serif" font-size="11.00" fill="gray">CLI</text>
</g>
<!-- \\Slothsoft\\Amber\\Controller\\EditorController -->
<g id="node1" class="node"><title>\\Slothsoft\\Amber\\Controller\\EditorController</title>
<polygon fill="none" stroke="black" points="1621.88,-1052.73 1496.88,-1052.73 1496.88,-1016.73 1621.88,-1016.73 1621.88,-1052.73"/>
<text text-anchor="middle" x="1559.38" y="-1031.93" font-family="Courier,monospace" font-size="11.00">EditorController</text>
</g>
<!-- \\Slothsoft\\Amber\\ResourceAssets\\AmberdataParameterFilter -->
<g id="node2" class="node"><title>\\Slothsoft\\Amber\\ResourceAssets\\AmberdataParameterFilter</title>
<polygon fill="none" stroke="black" points="1648.88,-972.732 1469.88,-972.732 1469.88,-936.732 1648.88,-936.732 1648.88,-972.732"/>
<text text-anchor="middle" x="1559.38" y="-951.932" font-family="Courier,monospace" font-size="11.00">AmberdataParameterFilter</text>
</g>
<!-- \\Slothsoft\\Amber\\ResourceAssets\\AbstractParameterFilter -->
<g id="node6" class="node"><title>\\Slothsoft\\Amber\\ResourceAssets\\AbstractParameterFilter</title>
<polygon fill="none" stroke="black" points="1134.86,-945.732 962.863,-945.732 962.863,-909.732 1134.86,-909.732 1134.86,-945.732"/>
<text text-anchor="start" x="1014.86" y="-930.932" font-family="Courier,monospace" font-size="11.00">«abstract»</text>
<text text-anchor="start" x="970.863" y="-918.932" font-family="Courier,monospace" font-size="11.00">AbstractParameterFilter</text>
</g>
<!-- \\Slothsoft\\Amber\\ResourceAssets\\AmberdataParameterFilter&#45;&gt;\\Slothsoft\\Amber\\ResourceAssets\\AbstractParameterFilter -->
<g id="edge1" class="edge"><title>\\Slothsoft\\Amber\\ResourceAssets\\AmberdataParameterFilter&#45;&gt;\\Slothsoft\\Amber\\ResourceAssets\\AbstractParameterFilter</title>
<path fill="none" stroke="black" d="M1469.81,-950.029C1378.93,-945.204 1238.03,-937.723 1144.88,-932.777"/>
<polygon fill="none" stroke="black" points="1145.06,-929.282 1134.89,-932.247 1144.69,-936.272 1145.06,-929.282"/>
</g>
<!-- \\Slothsoft\\Amber\\ResourceAssets\\DatasetBuilder -->
<g id="node3" class="node"><title>\\Slothsoft\\Amber\\ResourceAssets\\DatasetBuilder</title>
<polygon fill="none" stroke="black" points="1614.88,-864.732 1503.88,-864.732 1503.88,-828.732 1614.88,-828.732 1614.88,-864.732"/>
<text text-anchor="middle" x="1559.38" y="-843.932" font-family="Courier,monospace" font-size="11.00">DatasetBuilder</text>
</g>
<!-- \\Slothsoft\\Farah\\Module\\Asset\\ExecutableBuilderStrategy\\ExecutableBuilderStrategyInterface -->
<g id="node16" class="node"><title>\\Slothsoft\\Farah\\Module\\Asset\\ExecutableBuilderStrategy\\ExecutableBuilderStrategyInterface</title>
<ellipse fill="none" stroke="black" cx="1048.86" cy="-186.732" rx="349.038" ry="18"/>
<text text-anchor="middle" x="1048.86" y="-183.032" font-family="Times New Roman,serif" font-size="14.00" fill="gray">\Slothsoft\Farah\Module\Asset\ExecutableBuilderStrategy\ExecutableBuilderStrategyInterface</text>
</g>
<!-- \\Slothsoft\\Amber\\ResourceAssets\\DatasetBuilder&#45;&gt;\\Slothsoft\\Farah\\Module\\Asset\\ExecutableBuilderStrategy\\ExecutableBuilderStrategyInterface -->
<g id="edge2" class="edge"><title>\\Slothsoft\\Amber\\ResourceAssets\\DatasetBuilder&#45;&gt;\\Slothsoft\\Farah\\Module\\Asset\\ExecutableBuilderStrategy\\ExecutableBuilderStrategyInterface</title>
<path fill="none" stroke="black" stroke-dasharray="1,5" d="M1503.63,-836.433C1491.76,-832.512 1479.8,-827.124 1469.88,-819.732 1240.35,-648.639 1098.09,-312.584 1060.12,-214.328"/>
<polygon fill="none" stroke="black" points="1063.33,-212.9 1056.49,-204.808 1056.79,-215.398 1063.33,-212.9"/>
</g>
<!-- \\Slothsoft\\Amber\\ResourceAssets\\AmberdataBuilder -->
<g id="node4" class="node"><title>\\Slothsoft\\Amber\\ResourceAssets\\AmberdataBuilder</title>
<polygon fill="none" stroke="black" points="1621.88,-810.732 1496.88,-810.732 1496.88,-774.732 1621.88,-774.732 1621.88,-810.732"/>
<text text-anchor="middle" x="1559.38" y="-789.932" font-family="Courier,monospace" font-size="11.00">AmberdataBuilder</text>
</g>
<!-- \\Slothsoft\\Amber\\ResourceAssets\\AmberdataBuilder&#45;&gt;\\Slothsoft\\Farah\\Module\\Asset\\ExecutableBuilderStrategy\\ExecutableBuilderStrategyInterface -->
<g id="edge3" class="edge"><title>\\Slothsoft\\Amber\\ResourceAssets\\AmberdataBuilder&#45;&gt;\\Slothsoft\\Farah\\Module\\Asset\\ExecutableBuilderStrategy\\ExecutableBuilderStrategyInterface</title>
<path fill="none" stroke="black" stroke-dasharray="1,5" d="M1496.44,-777.232C1487.06,-773.364 1477.86,-768.593 1469.88,-762.732 1255.31,-605.036 1104.72,-305.538 1062.14,-213.993"/>
<polygon fill="none" stroke="black" points="1065.28,-212.448 1057.92,-204.831 1058.92,-215.378 1065.28,-212.448"/>
</g>
<!-- \\Slothsoft\\Amber\\ResourceAssets\\DatasetParameterFilter -->
<g id="node5" class="node"><title>\\Slothsoft\\Amber\\ResourceAssets\\DatasetParameterFilter</title>
<polygon fill="none" stroke="black" points="1641.88,-918.732 1476.88,-918.732 1476.88,-882.732 1641.88,-882.732 1641.88,-918.732"/>
<text text-anchor="middle" x="1559.38" y="-897.932" font-family="Courier,monospace" font-size="11.00">DatasetParameterFilter</text>
</g>
<!-- \\Slothsoft\\Amber\\ResourceAssets\\DatasetParameterFilter&#45;&gt;\\Slothsoft\\Amber\\ResourceAssets\\AbstractParameterFilter -->
<g id="edge5" class="edge"><title>\\Slothsoft\\Amber\\ResourceAssets\\DatasetParameterFilter&#45;&gt;\\Slothsoft\\Amber\\ResourceAssets\\AbstractParameterFilter</title>
<path fill="none" stroke="black" d="M1476.68,-905.07C1386.34,-909.867 1240.97,-917.585 1145.42,-922.658"/>
<polygon fill="none" stroke="black" points="1144.98,-919.177 1135.18,-923.202 1145.35,-926.167 1144.98,-919.177"/>
</g>
<!-- \\Slothsoft\\Farah\\Module\\Asset\\ParameterFilterStrategy\\AbstractMapParameterFilter -->
<g id="node20" class="node"><title>\\Slothsoft\\Farah\\Module\\Asset\\ParameterFilterStrategy\\AbstractMapParameterFilter</title>
<ellipse fill="none" stroke="black" cx="313.922" cy="-927.732" rx="313.844" ry="18"/>
<text text-anchor="middle" x="313.922" y="-924.032" font-family="Times New Roman,serif" font-size="14.00" fill="gray">\Slothsoft\Farah\Module\Asset\ParameterFilterStrategy\AbstractMapParameterFilter</text>
</g>
<!-- \\Slothsoft\\Amber\\ResourceAssets\\AbstractParameterFilter&#45;&gt;\\Slothsoft\\Farah\\Module\\Asset\\ParameterFilterStrategy\\AbstractMapParameterFilter -->
<g id="edge8" class="edge"><title>\\Slothsoft\\Amber\\ResourceAssets\\AbstractParameterFilter&#45;&gt;\\Slothsoft\\Farah\\Module\\Asset\\ParameterFilterStrategy\\AbstractMapParameterFilter</title>
<path fill="none" stroke="black" d="M962.711,-927.732C882.541,-927.732 757.314,-927.732 638.247,-927.732"/>
<polygon fill="none" stroke="black" points="638.221,-924.232 628.221,-927.732 638.221,-931.232 638.221,-924.232"/>
</g>
<!-- \\Slothsoft\\Amber\\SavegameImplementations\\AmberArchiveExtractor -->
<g id="node7" class="node"><title>\\Slothsoft\\Amber\\SavegameImplementations\\AmberArchiveExtractor</title>
<polygon fill="none" stroke="black" points="1638.38,-730.732 1480.38,-730.732 1480.38,-694.732 1638.38,-694.732 1638.38,-730.732"/>
<text text-anchor="middle" x="1559.38" y="-709.932" font-family="Courier,monospace" font-size="11.00">AmberArchiveExtractor</text>
</g>
<!-- \\Slothsoft\\Savegame\\Node\\ArchiveParser\\ArchiveExtractorInterface -->
<g id="node17" class="node"><title>\\Slothsoft\\Savegame\\Node\\ArchiveParser\\ArchiveExtractorInterface</title>
<ellipse fill="none" stroke="black" cx="1048.86" cy="-132.732" rx="257.254" ry="18"/>
<text text-anchor="middle" x="1048.86" y="-129.032" font-family="Times New Roman,serif" font-size="14.00" fill="gray">\Slothsoft\Savegame\Node\ArchiveParser\ArchiveExtractorInterface</text>
</g>
<!-- \\Slothsoft\\Amber\\SavegameImplementations\\AmberArchiveExtractor&#45;&gt;\\Slothsoft\\Savegame\\Node\\ArchiveParser\\ArchiveExtractorInterface -->
<g id="edge4" class="edge"><title>\\Slothsoft\\Amber\\SavegameImplementations\\AmberArchiveExtractor&#45;&gt;\\Slothsoft\\Savegame\\Node\\ArchiveParser\\ArchiveExtractorInterface</title>
<path fill="none" stroke="black" stroke-dasharray="1,5" d="M1480.16,-695.06C1476.37,-692.369 1472.9,-689.279 1469.88,-685.732 1316.91,-506.079 1569.55,-321.619 1397.88,-159.732 1383.26,-145.944 1352.86,-137.488 1315.83,-132.527"/>
<polygon fill="none" stroke="black" points="1316.11,-129.035 1305.75,-131.28 1315.25,-135.982 1316.11,-129.035"/>
</g>
<!-- \\Slothsoft\\Amber\\SavegameImplementations\\AmberArchiveBuilder -->
<g id="node8" class="node"><title>\\Slothsoft\\Amber\\SavegameImplementations\\AmberArchiveBuilder</title>
<polygon fill="none" stroke="black" points="1631.88,-676.732 1486.88,-676.732 1486.88,-640.732 1631.88,-640.732 1631.88,-676.732"/>
<text text-anchor="middle" x="1559.38" y="-655.932" font-family="Courier,monospace" font-size="11.00">AmberArchiveBuilder</text>
</g>
<!-- \\Slothsoft\\Savegame\\Node\\ArchiveParser\\ArchiveBuilderInterface -->
<g id="node19" class="node"><title>\\Slothsoft\\Savegame\\Node\\ArchiveParser\\ArchiveBuilderInterface</title>
<ellipse fill="none" stroke="black" cx="1048.86" cy="-78.7322" rx="249.656" ry="18"/>
<text text-anchor="middle" x="1048.86" y="-75.0322" font-family="Times New Roman,serif" font-size="14.00" fill="gray">\Slothsoft\Savegame\Node\ArchiveParser\ArchiveBuilderInterface</text>
</g>
<!-- \\Slothsoft\\Amber\\SavegameImplementations\\AmberArchiveBuilder&#45;&gt;\\Slothsoft\\Savegame\\Node\\ArchiveParser\\ArchiveBuilderInterface -->
<g id="edge7" class="edge"><title>\\Slothsoft\\Amber\\SavegameImplementations\\AmberArchiveBuilder&#45;&gt;\\Slothsoft\\Savegame\\Node\\ArchiveParser\\ArchiveBuilderInterface</title>
<path fill="none" stroke="black" stroke-dasharray="1,5" d="M1486.6,-642.659C1480.28,-638.938 1474.53,-634.361 1469.88,-628.732 1320.46,-447.828 1568.65,-266.647 1397.88,-105.732 1382.01,-90.7746 1347.55,-82.0937 1306.21,-77.3424"/>
<polygon fill="none" stroke="black" points="1306.45,-73.8488 1296.14,-76.2742 1305.71,-80.8097 1306.45,-73.8488"/>
</g>
<!-- \\Slothsoft\\Amber\\CLI\\AmbGfx -->
<g id="node9" class="node"><title>\\Slothsoft\\Amber\\CLI\\AmbGfx</title>
<polygon fill="none" stroke="black" points="1587.88,-596.732 1530.88,-596.732 1530.88,-560.732 1587.88,-560.732 1587.88,-596.732"/>
<text text-anchor="middle" x="1559.38" y="-575.932" font-family="Courier,monospace" font-size="11.00">AmbGfx</text>
</g>
<!-- \\Slothsoft\\Amber\\CLI\\AmbTool -->
<g id="node10" class="node"><title>\\Slothsoft\\Amber\\CLI\\AmbTool</title>
<polygon fill="none" stroke="black" points="1591.38,-542.732 1527.38,-542.732 1527.38,-506.732 1591.38,-506.732 1591.38,-542.732"/>
<text text-anchor="middle" x="1559.38" y="-521.932" font-family="Courier,monospace" font-size="11.00">AmbTool</text>
</g>
<!-- \\Slothsoft\\Amber\\ModResourceLocator -->
<g id="node11" class="node"><title>\\Slothsoft\\Amber\\ModResourceLocator</title>
<polygon fill="none" stroke="black" points="1628.38,-488.732 1490.38,-488.732 1490.38,-452.732 1628.38,-452.732 1628.38,-488.732"/>
<text text-anchor="middle" x="1559.38" y="-467.932" font-family="Courier,monospace" font-size="11.00">ModResourceLocator</text>
</g>
<!-- \\Slothsoft\\Amber\\ModController -->
<g id="node12" class="node"><title>\\Slothsoft\\Amber\\ModController</title>
<polygon fill="none" stroke="black" points="1611.38,-434.732 1507.38,-434.732 1507.38,-398.732 1611.38,-398.732 1611.38,-434.732"/>
<text text-anchor="middle" x="1559.38" y="-413.932" font-family="Courier,monospace" font-size="11.00">ModController</text>
</g>
<!-- \\Slothsoft\\Amber\\GraphicsManager -->
<g id="node13" class="node"><title>\\Slothsoft\\Amber\\GraphicsManager</title>
<polygon fill="none" stroke="black" points="1618.38,-380.732 1500.38,-380.732 1500.38,-344.732 1618.38,-344.732 1618.38,-380.732"/>
<text text-anchor="middle" x="1559.38" y="-359.932" font-family="Courier,monospace" font-size="11.00">GraphicsManager</text>
</g>
<!-- \\Slothsoft\\Amber\\ModResource -->
<g id="node14" class="node"><title>\\Slothsoft\\Amber\\ModResource</title>
<polygon fill="none" stroke="black" points="1604.88,-326.732 1513.88,-326.732 1513.88,-290.732 1604.88,-290.732 1604.88,-326.732"/>
<text text-anchor="middle" x="1559.38" y="-305.932" font-family="Courier,monospace" font-size="11.00">ModResource</text>
</g>
<!-- \\Slothsoft\\Core\\IO\\HTTPFile -->
<g id="node18" class="node"><title>\\Slothsoft\\Core\\IO\\HTTPFile</title>
<ellipse fill="none" stroke="black" cx="1048.86" cy="-24.7322" rx="118.079" ry="18"/>
<text text-anchor="middle" x="1048.86" y="-21.0322" font-family="Times New Roman,serif" font-size="14.00" fill="gray">\Slothsoft\Core\IO\HTTPFile</text>
</g>
<!-- \\Slothsoft\\Amber\\ModResource&#45;&gt;\\Slothsoft\\Core\\IO\\HTTPFile -->
<g id="edge6" class="edge"><title>\\Slothsoft\\Amber\\ModResource&#45;&gt;\\Slothsoft\\Core\\IO\\HTTPFile</title>
<path fill="none" stroke="black" d="M1513.46,-303.708C1497.92,-299.907 1481.51,-293.276 1469.88,-281.732 1393.87,-206.267 1481.68,-118.452 1397.88,-51.7322 1321.32,9.22983 1202.85,4.02082 1125.82,-8.1321"/>
<polygon fill="none" stroke="black" points="1125,-4.7205 1115.7,-9.80565 1126.14,-11.6266 1125,-4.7205"/>
</g>
<!-- \\Slothsoft\\Amber\\ArchiveManager -->
<g id="node15" class="node"><title>\\Slothsoft\\Amber\\ArchiveManager</title>
<polygon fill="none" stroke="black" points="1614.88,-272.732 1503.88,-272.732 1503.88,-236.732 1614.88,-236.732 1614.88,-272.732"/>
<text text-anchor="middle" x="1559.38" y="-251.932" font-family="Courier,monospace" font-size="11.00">ArchiveManager</text>
</g>
</g>
</svg>
