<?xml version="1.0" encoding="UTF-8" standalone="no"?>
<!DOCTYPE svg PUBLIC "-//W3C//DTD SVG 1.1//EN"
 "http://www.w3.org/Graphics/SVG/1.1/DTD/svg11.dtd">
<!-- Generated by graphviz version 2.38.0 (20140413.2041)
 -->
<!-- Title: G Pages: 1 -->
<svg width="1676pt" height="1102pt"
 viewBox="0.00 0.00 1675.88 1101.98" xmlns="http://www.w3.org/2000/svg" xmlns:xlink="http://www.w3.org/1999/xlink">
<g id="graph0" class="graph" transform="scale(1 1) rotate(0) translate(4 1097.98)">
<title>G</title>
<polygon fill="white" stroke="none" points="-4,4 -4,-1097.98 1671.88,-1097.98 1671.88,4 -4,4"/>
<g id="clust1" class="cluster"><title>cluster_Global</title>
<path fill="none" stroke="gray" d="M942.863,-161.982C942.863,-161.982 1647.88,-161.982 1647.88,-161.982 1653.88,-161.982 1659.88,-167.982 1659.88,-173.982 1659.88,-173.982 1659.88,-1073.98 1659.88,-1073.98 1659.88,-1079.98 1653.88,-1085.98 1647.88,-1085.98 1647.88,-1085.98 942.863,-1085.98 942.863,-1085.98 936.863,-1085.98 930.863,-1079.98 930.863,-1073.98 930.863,-1073.98 930.863,-173.982 930.863,-173.982 930.863,-167.982 936.863,-161.982 942.863,-161.982"/>
<text text-anchor="middle" x="1295.37" y="-1073.18" font-family="Times New Roman,serif" font-size="11.00" fill="gray">Global</text>
</g>
<g id="clust2" class="cluster"><title>cluster_\Slothsoft</title>
<path fill="none" stroke="gray" d="M950.863,-169.982C950.863,-169.982 1639.88,-169.982 1639.88,-169.982 1645.88,-169.982 1651.88,-175.982 1651.88,-181.982 1651.88,-181.982 1651.88,-1045.98 1651.88,-1045.98 1651.88,-1051.98 1645.88,-1057.98 1639.88,-1057.98 1639.88,-1057.98 950.863,-1057.98 950.863,-1057.98 944.863,-1057.98 938.863,-1051.98 938.863,-1045.98 938.863,-1045.98 938.863,-181.982 938.863,-181.982 938.863,-175.982 944.863,-169.982 950.863,-169.982"/>
<text text-anchor="middle" x="1295.37" y="-1045.18" font-family="Times New Roman,serif" font-size="11.00" fill="gray">Slothsoft</text>
</g>
<g id="clust3" class="cluster"><title>cluster_\Slothsoft\Amber</title>
<path fill="none" stroke="gray" d="M958.863,-177.982C958.863,-177.982 1631.88,-177.982 1631.88,-177.982 1637.88,-177.982 1643.88,-183.982 1643.88,-189.982 1643.88,-189.982 1643.88,-1017.98 1643.88,-1017.98 1643.88,-1023.98 1637.88,-1029.98 1631.88,-1029.98 1631.88,-1029.98 958.863,-1029.98 958.863,-1029.98 952.863,-1029.98 946.863,-1023.98 946.863,-1017.98 946.863,-1017.98 946.863,-189.982 946.863,-189.982 946.863,-183.982 952.863,-177.982 958.863,-177.982"/>
<text text-anchor="middle" x="1295.37" y="-1017.18" font-family="Times New Roman,serif" font-size="11.00" fill="gray">Amber</text>
</g>
<g id="clust4" class="cluster"><title>cluster_\Slothsoft\Amber\Controller</title>
<path fill="none" stroke="gray" d="M1490.38,-929.982C1490.38,-929.982 1607.38,-929.982 1607.38,-929.982 1613.38,-929.982 1619.38,-935.982 1619.38,-941.982 1619.38,-941.982 1619.38,-989.982 1619.38,-989.982 1619.38,-995.982 1613.38,-1001.98 1607.38,-1001.98 1607.38,-1001.98 1490.38,-1001.98 1490.38,-1001.98 1484.38,-1001.98 1478.38,-995.982 1478.38,-989.982 1478.38,-989.982 1478.38,-941.982 1478.38,-941.982 1478.38,-935.982 1484.38,-929.982 1490.38,-929.982"/>
<text text-anchor="middle" x="1548.88" y="-989.182" font-family="Times New Roman,serif" font-size="11.00" fill="gray">Controller</text>
</g>
<g id="clust5" class="cluster"><title>cluster_\Slothsoft\Amber\SavegameImplementations</title>
<path fill="none" stroke="gray" d="M1473.88,-795.982C1473.88,-795.982 1623.88,-795.982 1623.88,-795.982 1629.88,-795.982 1635.88,-801.982 1635.88,-807.982 1635.88,-807.982 1635.88,-909.982 1635.88,-909.982 1635.88,-915.982 1629.88,-921.982 1623.88,-921.982 1623.88,-921.982 1473.88,-921.982 1473.88,-921.982 1467.88,-921.982 1461.88,-915.982 1461.88,-909.982 1461.88,-909.982 1461.88,-807.982 1461.88,-807.982 1461.88,-801.982 1467.88,-795.982 1473.88,-795.982"/>
<text text-anchor="middle" x="1548.88" y="-909.182" font-family="Times New Roman,serif" font-size="11.00" fill="gray">SavegameImplementations</text>
</g>
<g id="clust6" class="cluster"><title>cluster_\Slothsoft\Amber\CLI</title>
<path fill="none" stroke="gray" d="M1520.88,-661.982C1520.88,-661.982 1576.88,-661.982 1576.88,-661.982 1582.88,-661.982 1588.88,-667.982 1588.88,-673.982 1588.88,-673.982 1588.88,-775.982 1588.88,-775.982 1588.88,-781.982 1582.88,-787.982 1576.88,-787.982 1576.88,-787.982 1520.88,-787.982 1520.88,-787.982 1514.88,-787.982 1508.88,-781.982 1508.88,-775.982 1508.88,-775.982 1508.88,-673.982 1508.88,-673.982 1508.88,-667.982 1514.88,-661.982 1520.88,-661.982"/>
<text text-anchor="middle" x="1548.88" y="-775.182" font-family="Times New Roman,serif" font-size="11.00" fill="gray">CLI</text>
</g>
<g id="clust8" class="cluster"><title>cluster_\Slothsoft\Amber\ParameterFilters</title>
<path fill="none" stroke="gray" d="M966.863,-527.982C966.863,-527.982 1623.88,-527.982 1623.88,-527.982 1629.88,-527.982 1635.88,-533.982 1635.88,-539.982 1635.88,-539.982 1635.88,-641.982 1635.88,-641.982 1635.88,-647.982 1629.88,-653.982 1623.88,-653.982 1623.88,-653.982 966.863,-653.982 966.863,-653.982 960.863,-653.982 954.863,-647.982 954.863,-641.982 954.863,-641.982 954.863,-539.982 954.863,-539.982 954.863,-533.982 960.863,-527.982 966.863,-527.982"/>
<text text-anchor="middle" x="1295.37" y="-641.182" font-family="Times New Roman,serif" font-size="11.00" fill="gray">ParameterFilters</text>
</g>
<g id="clust7" class="cluster"><title>cluster_\Slothsoft\Amber\Assets</title>
<path fill="none" stroke="gray" d="M1487.38,-231.982C1487.38,-231.982 1610.38,-231.982 1610.38,-231.982 1616.38,-231.982 1622.38,-237.982 1622.38,-243.982 1622.38,-243.982 1622.38,-507.982 1622.38,-507.982 1622.38,-513.982 1616.38,-519.982 1610.38,-519.982 1610.38,-519.982 1487.38,-519.982 1487.38,-519.982 1481.38,-519.982 1475.38,-513.982 1475.38,-507.982 1475.38,-507.982 1475.38,-243.982 1475.38,-243.982 1475.38,-237.982 1481.38,-231.982 1487.38,-231.982"/>
<text text-anchor="middle" x="1548.88" y="-507.182" font-family="Times New Roman,serif" font-size="11.00" fill="gray">Assets</text>
</g>
<!-- \\Slothsoft\\Amber\\Controller\\EditorController -->
<g id="node1" class="node"><title>\\Slothsoft\\Amber\\Controller\\EditorController</title>
<polygon fill="none" stroke="black" points="1611.38,-973.982 1486.38,-973.982 1486.38,-937.982 1611.38,-937.982 1611.38,-973.982"/>
<text text-anchor="middle" x="1548.88" y="-953.182" font-family="Courier,monospace" font-size="11.00">EditorController</text>
</g>
<!-- \\Slothsoft\\Amber\\SavegameImplementations\\AmberArchiveExtractor -->
<g id="node2" class="node"><title>\\Slothsoft\\Amber\\SavegameImplementations\\AmberArchiveExtractor</title>
<polygon fill="none" stroke="black" points="1627.88,-893.982 1469.88,-893.982 1469.88,-857.982 1627.88,-857.982 1627.88,-893.982"/>
<text text-anchor="middle" x="1548.88" y="-873.182" font-family="Courier,monospace" font-size="11.00">AmberArchiveExtractor</text>
</g>
<!-- \\Slothsoft\\Savegame\\Node\\ArchiveParser\\CopyArchiveExtractor -->
<g id="node15" class="node"><title>\\Slothsoft\\Savegame\\Node\\ArchiveParser\\CopyArchiveExtractor</title>
<ellipse fill="none" stroke="black" cx="1048.86" cy="-135.982" rx="246.156" ry="18"/>
<text text-anchor="middle" x="1048.86" y="-132.282" font-family="Times New Roman,serif" font-size="14.00" fill="gray">\Slothsoft\Savegame\Node\ArchiveParser\CopyArchiveExtractor</text>
</g>
<!-- \\Slothsoft\\Amber\\SavegameImplementations\\AmberArchiveExtractor&#45;&gt;\\Slothsoft\\Savegame\\Node\\ArchiveParser\\CopyArchiveExtractor -->
<g id="edge1" class="edge"><title>\\Slothsoft\\Amber\\SavegameImplementations\\AmberArchiveExtractor&#45;&gt;\\Slothsoft\\Savegame\\Node\\ArchiveParser\\CopyArchiveExtractor</title>
<path fill="none" stroke="black" d="M1472.09,-857.917C1468.36,-855.324 1464.91,-852.363 1461.88,-848.982 1363.65,-739.329 1463.61,-655.716 1397.88,-523.982 1317.14,-362.144 1150.33,-216.5 1081.07,-160.417"/>
<polygon fill="none" stroke="black" points="1083.11,-157.563 1073.12,-154.026 1078.72,-163.019 1083.11,-157.563"/>
</g>
<!-- \\Slothsoft\\Amber\\SavegameImplementations\\AmberArchiveBuilder -->
<g id="node3" class="node"><title>\\Slothsoft\\Amber\\SavegameImplementations\\AmberArchiveBuilder</title>
<polygon fill="none" stroke="black" points="1621.38,-839.982 1476.38,-839.982 1476.38,-803.982 1621.38,-803.982 1621.38,-839.982"/>
<text text-anchor="middle" x="1548.88" y="-819.182" font-family="Courier,monospace" font-size="11.00">AmberArchiveBuilder</text>
</g>
<!-- \\Slothsoft\\Savegame\\Node\\ArchiveParser\\ArchiveBuilderInterface -->
<g id="node16" class="node"><title>\\Slothsoft\\Savegame\\Node\\ArchiveParser\\ArchiveBuilderInterface</title>
<ellipse fill="none" stroke="black" cx="1048.86" cy="-81.9825" rx="249.656" ry="18"/>
<text text-anchor="middle" x="1048.86" y="-78.2825" font-family="Times New Roman,serif" font-size="14.00" fill="gray">\Slothsoft\Savegame\Node\ArchiveParser\ArchiveBuilderInterface</text>
</g>
<!-- \\Slothsoft\\Amber\\SavegameImplementations\\AmberArchiveBuilder&#45;&gt;\\Slothsoft\\Savegame\\Node\\ArchiveParser\\ArchiveBuilderInterface -->
<g id="edge2" class="edge"><title>\\Slothsoft\\Amber\\SavegameImplementations\\AmberArchiveBuilder&#45;&gt;\\Slothsoft\\Savegame\\Node\\ArchiveParser\\ArchiveBuilderInterface</title>
<path fill="none" stroke="black" stroke-dasharray="1,5" d="M1476.25,-804.846C1470.8,-801.326 1465.88,-797.087 1461.88,-791.982 1367.9,-671.956 1506.53,-215.91 1397.88,-108.982 1382.1,-93.4547 1346.99,-84.5907 1304.85,-79.8517"/>
<polygon fill="none" stroke="black" points="1305.19,-76.3683 1294.89,-78.8182 1304.47,-83.331 1305.19,-76.3683"/>
</g>
<!-- \\Slothsoft\\Amber\\CLI\\AmbGfx -->
<g id="node4" class="node"><title>\\Slothsoft\\Amber\\CLI\\AmbGfx</title>
<polygon fill="none" stroke="black" points="1577.38,-759.982 1520.38,-759.982 1520.38,-723.982 1577.38,-723.982 1577.38,-759.982"/>
<text text-anchor="middle" x="1548.88" y="-739.182" font-family="Courier,monospace" font-size="11.00">AmbGfx</text>
</g>
<!-- \\Slothsoft\\Amber\\CLI\\AmbTool -->
<g id="node5" class="node"><title>\\Slothsoft\\Amber\\CLI\\AmbTool</title>
<polygon fill="none" stroke="black" points="1580.88,-705.982 1516.88,-705.982 1516.88,-669.982 1580.88,-669.982 1580.88,-705.982"/>
<text text-anchor="middle" x="1548.88" y="-685.182" font-family="Courier,monospace" font-size="11.00">AmbTool</text>
</g>
<!-- \\Slothsoft\\Amber\\Assets\\AmberdataBuilder -->
<g id="node6" class="node"><title>\\Slothsoft\\Amber\\Assets\\AmberdataBuilder</title>
<polygon fill="none" stroke="black" points="1611.38,-437.982 1486.38,-437.982 1486.38,-401.982 1611.38,-401.982 1611.38,-437.982"/>
<text text-anchor="middle" x="1548.88" y="-417.182" font-family="Courier,monospace" font-size="11.00">AmberdataBuilder</text>
</g>
<!-- \\Slothsoft\\Farah\\Module\\Asset\\ExecutableBuilderStrategy\\ExecutableBuilderStrategyInterface -->
<g id="node17" class="node"><title>\\Slothsoft\\Farah\\Module\\Asset\\ExecutableBuilderStrategy\\ExecutableBuilderStrategyInterface</title>
<ellipse fill="none" stroke="black" cx="1048.86" cy="-27.9825" rx="349.038" ry="18"/>
<text text-anchor="middle" x="1048.86" y="-24.2825" font-family="Times New Roman,serif" font-size="14.00" fill="gray">\Slothsoft\Farah\Module\Asset\ExecutableBuilderStrategy\ExecutableBuilderStrategyInterface</text>
</g>
<!-- \\Slothsoft\\Amber\\Assets\\AmberdataBuilder&#45;&gt;\\Slothsoft\\Farah\\Module\\Asset\\ExecutableBuilderStrategy\\ExecutableBuilderStrategyInterface -->
<g id="edge3" class="edge"><title>\\Slothsoft\\Amber\\Assets\\AmberdataBuilder&#45;&gt;\\Slothsoft\\Farah\\Module\\Asset\\ExecutableBuilderStrategy\\ExecutableBuilderStrategyInterface</title>
<path fill="none" stroke="black" stroke-dasharray="1,5" d="M1486.12,-409.645C1476.97,-405.726 1468.43,-400.35 1461.88,-392.982 1360.28,-278.732 1511.76,-157.003 1397.88,-54.9825 1326.82,8.67959 1211.55,4.25246 1133.31,-8.59463"/>
<polygon fill="none" stroke="black" points="1132.26,-5.22323 1123,-10.3706 1133.45,-12.1216 1132.26,-5.22323"/>
</g>
<!-- \\Slothsoft\\Amber\\Assets\\DatasetBuilder -->
<g id="node7" class="node"><title>\\Slothsoft\\Amber\\Assets\\DatasetBuilder</title>
<polygon fill="none" stroke="black" points="1604.38,-383.982 1493.38,-383.982 1493.38,-347.982 1604.38,-347.982 1604.38,-383.982"/>
<text text-anchor="middle" x="1548.88" y="-363.182" font-family="Courier,monospace" font-size="11.00">DatasetBuilder</text>
</g>
<!-- \\Slothsoft\\Amber\\Assets\\DatasetBuilder&#45;&gt;\\Slothsoft\\Farah\\Module\\Asset\\ExecutableBuilderStrategy\\ExecutableBuilderStrategyInterface -->
<g id="edge4" class="edge"><title>\\Slothsoft\\Amber\\Assets\\DatasetBuilder&#45;&gt;\\Slothsoft\\Farah\\Module\\Asset\\ExecutableBuilderStrategy\\ExecutableBuilderStrategyInterface</title>
<path fill="none" stroke="black" stroke-dasharray="1,5" d="M1492.96,-357.999C1481.36,-353.977 1470.15,-347.962 1461.88,-338.982 1374.25,-243.794 1495.73,-139.644 1397.88,-54.9825 1326.61,6.68485 1213.5,3.39175 1135.68,-8.6941"/>
<polygon fill="none" stroke="black" points="1134.73,-5.30376 1125.42,-10.3701 1135.86,-12.2122 1134.73,-5.30376"/>
</g>
<!-- \\Slothsoft\\Amber\\Assets\\EditorBuilder -->
<g id="node8" class="node"><title>\\Slothsoft\\Amber\\Assets\\EditorBuilder</title>
<polygon fill="none" stroke="black" points="1600.88,-329.982 1496.88,-329.982 1496.88,-293.982 1600.88,-293.982 1600.88,-329.982"/>
<text text-anchor="middle" x="1548.88" y="-309.182" font-family="Courier,monospace" font-size="11.00">EditorBuilder</text>
</g>
<!-- \\Slothsoft\\Amber\\Assets\\EditorBuilder&#45;&gt;\\Slothsoft\\Farah\\Module\\Asset\\ExecutableBuilderStrategy\\ExecutableBuilderStrategyInterface -->
<g id="edge5" class="edge"><title>\\Slothsoft\\Amber\\Assets\\EditorBuilder&#45;&gt;\\Slothsoft\\Farah\\Module\\Asset\\ExecutableBuilderStrategy\\ExecutableBuilderStrategyInterface</title>
<path fill="none" stroke="black" stroke-dasharray="1,5" d="M1496.86,-304.871C1484.02,-300.874 1471.24,-294.654 1461.88,-284.982 1388.1,-208.733 1479.82,-122.393 1397.88,-54.9825 1326.44,3.78786 1216.46,2.07129 1139.3,-8.89395"/>
<polygon fill="none" stroke="black" points="1138.49,-5.47739 1129.12,-10.4222 1139.52,-12.3999 1138.49,-5.47739"/>
</g>
<!-- \\Slothsoft\\Amber\\Assets\\GfxBuilder -->
<g id="node9" class="node"><title>\\Slothsoft\\Amber\\Assets\\GfxBuilder</title>
<polygon fill="none" stroke="black" points="1590.88,-275.982 1506.88,-275.982 1506.88,-239.982 1590.88,-239.982 1590.88,-275.982"/>
<text text-anchor="middle" x="1548.88" y="-255.182" font-family="Courier,monospace" font-size="11.00">GfxBuilder</text>
</g>
<!-- \\Slothsoft\\Amber\\Assets\\GfxBuilder&#45;&gt;\\Slothsoft\\Farah\\Module\\Asset\\ExecutableBuilderStrategy\\ExecutableBuilderStrategyInterface -->
<g id="edge6" class="edge"><title>\\Slothsoft\\Amber\\Assets\\GfxBuilder&#45;&gt;\\Slothsoft\\Farah\\Module\\Asset\\ExecutableBuilderStrategy\\ExecutableBuilderStrategyInterface</title>
<path fill="none" stroke="black" stroke-dasharray="1,5" d="M1506.76,-255.608C1491.07,-252.779 1474.05,-247.11 1461.88,-235.982 1398.91,-178.406 1465.59,-106.903 1397.88,-54.9825 1326.66,-0.368342 1221.37,0.0917213 1145.26,-9.22251"/>
<polygon fill="none" stroke="black" points="1144.66,-5.77145 1135.2,-10.5322 1145.56,-12.713 1144.66,-5.77145"/>
</g>
<!-- \\Slothsoft\\Amber\\Assets\\StylesheetBuilder -->
<g id="node10" class="node"><title>\\Slothsoft\\Amber\\Assets\\StylesheetBuilder</title>
<polygon fill="none" stroke="black" points="1614.38,-491.982 1483.38,-491.982 1483.38,-455.982 1614.38,-455.982 1614.38,-491.982"/>
<text text-anchor="middle" x="1548.88" y="-471.182" font-family="Courier,monospace" font-size="11.00">StylesheetBuilder</text>
</g>
<!-- \\Slothsoft\\Amber\\Assets\\StylesheetBuilder&#45;&gt;\\Slothsoft\\Farah\\Module\\Asset\\ExecutableBuilderStrategy\\ExecutableBuilderStrategyInterface -->
<g id="edge7" class="edge"><title>\\Slothsoft\\Amber\\Assets\\StylesheetBuilder&#45;&gt;\\Slothsoft\\Farah\\Module\\Asset\\ExecutableBuilderStrategy\\ExecutableBuilderStrategyInterface</title>
<path fill="none" stroke="black" stroke-dasharray="1,5" d="M1483.37,-462.62C1475.23,-458.8 1467.73,-453.723 1461.88,-446.982 1346.25,-313.596 1527.86,-174.429 1397.88,-54.9825 1326.96,10.1965 1209.94,4.84472 1131.41,-8.58004"/>
<polygon fill="none" stroke="black" points="1130.78,-5.13709 1121.55,-10.342 1132.01,-12.0279 1130.78,-5.13709"/>
</g>
<!-- \\Slothsoft\\Amber\\ParameterFilters\\EditorParameterFilter -->
<g id="node11" class="node"><title>\\Slothsoft\\Amber\\ParameterFilters\\EditorParameterFilter</title>
<polygon fill="none" stroke="black" points="1627.88,-625.982 1469.88,-625.982 1469.88,-589.982 1627.88,-589.982 1627.88,-625.982"/>
<text text-anchor="middle" x="1548.88" y="-605.182" font-family="Courier,monospace" font-size="11.00">EditorParameterFilter</text>
</g>
<!-- \\Slothsoft\\Amber\\ParameterFilters\\ResourceParameterFilter -->
<g id="node13" class="node"><title>\\Slothsoft\\Amber\\ParameterFilters\\ResourceParameterFilter</title>
<polygon fill="none" stroke="black" points="1134.86,-598.982 962.863,-598.982 962.863,-562.982 1134.86,-562.982 1134.86,-598.982"/>
<text text-anchor="middle" x="1048.86" y="-578.182" font-family="Courier,monospace" font-size="11.00">ResourceParameterFilter</text>
</g>
<!-- \\Slothsoft\\Amber\\ParameterFilters\\EditorParameterFilter&#45;&gt;\\Slothsoft\\Amber\\ParameterFilters\\ResourceParameterFilter -->
<g id="edge8" class="edge"><title>\\Slothsoft\\Amber\\ParameterFilters\\EditorParameterFilter&#45;&gt;\\Slothsoft\\Amber\\ParameterFilters\\ResourceParameterFilter</title>
<path fill="none" stroke="black" d="M1469.79,-603.749C1381.97,-598.988 1239.34,-591.255 1145.06,-586.144"/>
<polygon fill="none" stroke="black" points="1145.13,-582.642 1134.95,-585.596 1144.75,-589.632 1145.13,-582.642"/>
</g>
<!-- \\Slothsoft\\Amber\\ParameterFilters\\GfxParameterFilter -->
<g id="node12" class="node"><title>\\Slothsoft\\Amber\\ParameterFilters\\GfxParameterFilter</title>
<polygon fill="none" stroke="black" points="1617.88,-571.982 1479.88,-571.982 1479.88,-535.982 1617.88,-535.982 1617.88,-571.982"/>
<text text-anchor="middle" x="1548.88" y="-551.182" font-family="Courier,monospace" font-size="11.00">GfxParameterFilter</text>
</g>
<!-- \\Slothsoft\\Amber\\ParameterFilters\\GfxParameterFilter&#45;&gt;\\Slothsoft\\Amber\\ParameterFilters\\ResourceParameterFilter -->
<g id="edge9" class="edge"><title>\\Slothsoft\\Amber\\ParameterFilters\\GfxParameterFilter&#45;&gt;\\Slothsoft\\Amber\\ParameterFilters\\ResourceParameterFilter</title>
<path fill="none" stroke="black" d="M1479.68,-557.68C1393.1,-562.374 1243.25,-570.498 1145.34,-575.806"/>
<polygon fill="none" stroke="black" points="1144.94,-572.323 1135.15,-576.359 1145.32,-579.312 1144.94,-572.323"/>
</g>
<!-- \\Slothsoft\\Farah\\Module\\Asset\\ParameterFilterStrategy\\AbstractMapParameterFilter -->
<g id="node18" class="node"><title>\\Slothsoft\\Farah\\Module\\Asset\\ParameterFilterStrategy\\AbstractMapParameterFilter</title>
<ellipse fill="none" stroke="black" cx="313.922" cy="-580.982" rx="313.844" ry="18"/>
<text text-anchor="middle" x="313.922" y="-577.282" font-family="Times New Roman,serif" font-size="14.00" fill="gray">\Slothsoft\Farah\Module\Asset\ParameterFilterStrategy\AbstractMapParameterFilter</text>
</g>
<!-- \\Slothsoft\\Amber\\ParameterFilters\\ResourceParameterFilter&#45;&gt;\\Slothsoft\\Farah\\Module\\Asset\\ParameterFilterStrategy\\AbstractMapParameterFilter -->
<g id="edge10" class="edge"><title>\\Slothsoft\\Amber\\ParameterFilters\\ResourceParameterFilter&#45;&gt;\\Slothsoft\\Farah\\Module\\Asset\\ParameterFilterStrategy\\AbstractMapParameterFilter</title>
<path fill="none" stroke="black" d="M962.711,-580.982C882.541,-580.982 757.314,-580.982 638.247,-580.982"/>
<polygon fill="none" stroke="black" points="638.221,-577.483 628.221,-580.982 638.221,-584.483 638.221,-577.483"/>
</g>
<!-- \\Slothsoft\\Amber\\AmberUser -->
<g id="node14" class="node"><title>\\Slothsoft\\Amber\\AmberUser</title>
<polygon fill="none" stroke="black" points="1587.38,-221.982 1510.38,-221.982 1510.38,-185.982 1587.38,-185.982 1587.38,-221.982"/>
<text text-anchor="middle" x="1548.88" y="-201.182" font-family="Courier,monospace" font-size="11.00">AmberUser</text>
</g>
</g>
</svg>
