<?xml version="1.0" encoding="UTF-8" standalone="no"?>
<!DOCTYPE svg PUBLIC "-//W3C//DTD SVG 1.1//EN"
 "http://www.w3.org/Graphics/SVG/1.1/DTD/svg11.dtd">
<!-- Generated by graphviz version 2.38.0 (20140413.2041)
 -->
<!-- Title: G Pages: 1 -->
<svg width="1242pt" height="1804pt"
 viewBox="0.00 0.00 1242.22 1804.00" xmlns="http://www.w3.org/2000/svg" xmlns:xlink="http://www.w3.org/1999/xlink">
<g id="graph0" class="graph" transform="scale(1 1) rotate(0) translate(4 1800)">
<title>G</title>
<polygon fill="white" stroke="none" points="-4,4 -4,-1800 1238.22,-1800 1238.22,4 -4,4"/>
<g id="clust1" class="cluster"><title>cluster_Global</title>
<path fill="none" stroke="gray" d="M580.344,-352C580.344,-352 1214.22,-352 1214.22,-352 1220.22,-352 1226.22,-358 1226.22,-364 1226.22,-364 1226.22,-1776 1226.22,-1776 1226.22,-1782 1220.22,-1788 1214.22,-1788 1214.22,-1788 580.344,-1788 580.344,-1788 574.344,-1788 568.344,-1782 568.344,-1776 568.344,-1776 568.344,-364 568.344,-364 568.344,-358 574.344,-352 580.344,-352"/>
<text text-anchor="middle" x="897.283" y="-1775.2" font-family="Times New Roman,serif" font-size="11.00" fill="gray">Global</text>
</g>
<g id="clust2" class="cluster"><title>cluster_\Slothsoft</title>
<path fill="none" stroke="gray" d="M588.344,-360C588.344,-360 1206.22,-360 1206.22,-360 1212.22,-360 1218.22,-366 1218.22,-372 1218.22,-372 1218.22,-1748 1218.22,-1748 1218.22,-1754 1212.22,-1760 1206.22,-1760 1206.22,-1760 588.344,-1760 588.344,-1760 582.344,-1760 576.344,-1754 576.344,-1748 576.344,-1748 576.344,-372 576.344,-372 576.344,-366 582.344,-360 588.344,-360"/>
<text text-anchor="middle" x="897.283" y="-1747.2" font-family="Times New Roman,serif" font-size="11.00" fill="gray">Slothsoft</text>
</g>
<g id="clust3" class="cluster"><title>cluster_\Slothsoft\Amber</title>
<path fill="none" stroke="gray" d="M596.344,-368C596.344,-368 1198.22,-368 1198.22,-368 1204.22,-368 1210.22,-374 1210.22,-380 1210.22,-380 1210.22,-1720 1210.22,-1720 1210.22,-1726 1204.22,-1732 1198.22,-1732 1198.22,-1732 596.344,-1732 596.344,-1732 590.344,-1732 584.344,-1726 584.344,-1720 584.344,-1720 584.344,-380 584.344,-380 584.344,-374 590.344,-368 596.344,-368"/>
<text text-anchor="middle" x="897.283" y="-1719.2" font-family="Times New Roman,serif" font-size="11.00" fill="gray">Amber</text>
</g>
<g id="clust5" class="cluster"><title>cluster_\Slothsoft\Amber\Controller</title>
<path fill="none" stroke="gray" d="M1053.22,-1632C1053.22,-1632 1170.22,-1632 1170.22,-1632 1176.22,-1632 1182.22,-1638 1182.22,-1644 1182.22,-1644 1182.22,-1692 1182.22,-1692 1182.22,-1698 1176.22,-1704 1170.22,-1704 1170.22,-1704 1053.22,-1704 1053.22,-1704 1047.22,-1704 1041.22,-1698 1041.22,-1692 1041.22,-1692 1041.22,-1644 1041.22,-1644 1041.22,-1638 1047.22,-1632 1053.22,-1632"/>
<text text-anchor="middle" x="1111.72" y="-1691.2" font-family="Times New Roman,serif" font-size="11.00" fill="gray">Controller</text>
</g>
<g id="clust8" class="cluster"><title>cluster_\Slothsoft\Amber\Executables</title>
<path fill="none" stroke="gray" d="M1033.22,-1284C1033.22,-1284 1190.22,-1284 1190.22,-1284 1196.22,-1284 1202.22,-1290 1202.22,-1296 1202.22,-1296 1202.22,-1398 1202.22,-1398 1202.22,-1404 1196.22,-1410 1190.22,-1410 1190.22,-1410 1033.22,-1410 1033.22,-1410 1027.22,-1410 1021.22,-1404 1021.22,-1398 1021.22,-1398 1021.22,-1296 1021.22,-1296 1021.22,-1290 1027.22,-1284 1033.22,-1284"/>
<text text-anchor="middle" x="1111.72" y="-1397.2" font-family="Times New Roman,serif" font-size="11.00" fill="gray">Executables</text>
</g>
<g id="clust6" class="cluster"><title>cluster_\Slothsoft\Amber\Mod</title>
<path fill="none" stroke="gray" d="M1056.72,-1552C1056.72,-1552 1166.72,-1552 1166.72,-1552 1172.72,-1552 1178.72,-1558 1178.72,-1564 1178.72,-1564 1178.72,-1612 1178.72,-1612 1178.72,-1618 1172.72,-1624 1166.72,-1624 1166.72,-1624 1056.72,-1624 1056.72,-1624 1050.72,-1624 1044.72,-1618 1044.72,-1612 1044.72,-1612 1044.72,-1564 1044.72,-1564 1044.72,-1558 1050.72,-1552 1056.72,-1552"/>
<text text-anchor="middle" x="1111.72" y="-1611.2" font-family="Times New Roman,serif" font-size="11.00" fill="gray">Mod</text>
</g>
<g id="clust7" class="cluster"><title>cluster_\Slothsoft\Amber\SavegameImplementations</title>
<path fill="none" stroke="gray" d="M1036.72,-1418C1036.72,-1418 1186.72,-1418 1186.72,-1418 1192.72,-1418 1198.72,-1424 1198.72,-1430 1198.72,-1430 1198.72,-1532 1198.72,-1532 1198.72,-1538 1192.72,-1544 1186.72,-1544 1186.72,-1544 1036.72,-1544 1036.72,-1544 1030.72,-1544 1024.72,-1538 1024.72,-1532 1024.72,-1532 1024.72,-1430 1024.72,-1430 1024.72,-1424 1030.72,-1418 1036.72,-1418"/>
<text text-anchor="middle" x="1111.72" y="-1531.2" font-family="Times New Roman,serif" font-size="11.00" fill="gray">SavegameImplementations</text>
</g>
<g id="clust9" class="cluster"><title>cluster_\Slothsoft\Amber\CLI</title>
<path fill="none" stroke="gray" d="M1083.72,-1150C1083.72,-1150 1139.72,-1150 1139.72,-1150 1145.72,-1150 1151.72,-1156 1151.72,-1162 1151.72,-1162 1151.72,-1264 1151.72,-1264 1151.72,-1270 1145.72,-1276 1139.72,-1276 1139.72,-1276 1083.72,-1276 1083.72,-1276 1077.72,-1276 1071.72,-1270 1071.72,-1264 1071.72,-1264 1071.72,-1162 1071.72,-1162 1071.72,-1156 1077.72,-1150 1083.72,-1150"/>
<text text-anchor="middle" x="1111.72" y="-1263.2" font-family="Times New Roman,serif" font-size="11.00" fill="gray">CLI</text>
</g>
<g id="clust4" class="cluster"><title>cluster_\Slothsoft\Amber\Assets</title>
<path fill="none" stroke="gray" d="M604.344,-638C604.344,-638 1180.22,-638 1180.22,-638 1186.22,-638 1192.22,-644 1192.22,-650 1192.22,-650 1192.22,-1130 1192.22,-1130 1192.22,-1136 1186.22,-1142 1180.22,-1142 1180.22,-1142 604.344,-1142 604.344,-1142 598.344,-1142 592.344,-1136 592.344,-1130 592.344,-1130 592.344,-650 592.344,-650 592.344,-644 598.344,-638 604.344,-638"/>
<text text-anchor="middle" x="892.283" y="-1129.2" font-family="Times New Roman,serif" font-size="11.00" fill="gray">Assets</text>
</g>
<!-- \\Slothsoft\\Amber\\Assets\\Amberdata -->
<g id="node1" class="node"><title>\\Slothsoft\\Amber\\Assets\\Amberdata</title>
<polygon fill="none" stroke="black" points="1150.22,-1006 1073.22,-1006 1073.22,-970 1150.22,-970 1150.22,-1006"/>
<text text-anchor="middle" x="1111.72" y="-985.2" font-family="Courier,monospace" font-size="11.00">Amberdata</text>
</g>
<!-- \\Slothsoft\\Farah\\Module\\Node\\Asset\\AssetBase -->
<g id="node24" class="node"><title>\\Slothsoft\\Farah\\Module\\Node\\Asset\\AssetBase</title>
<ellipse fill="none" stroke="black" cx="185.234" cy="-553" rx="185.467" ry="18"/>
<text text-anchor="middle" x="185.234" y="-549.3" font-family="Times New Roman,serif" font-size="14.00" fill="gray">\Slothsoft\Farah\Module\Node\Asset\AssetBase</text>
</g>
<!-- \\Slothsoft\\Amber\\Assets\\Amberdata&#45;&gt;\\Slothsoft\\Farah\\Module\\Node\\Asset\\AssetBase -->
<g id="edge1" class="edge"><title>\\Slothsoft\\Amber\\Assets\\Amberdata&#45;&gt;\\Slothsoft\\Farah\\Module\\Node\\Asset\\AssetBase</title>
<path fill="none" stroke="black" d="M1073,-986.255C1054.51,-983.311 1033.6,-976.455 1021.22,-961 898.93,-808.306 1095.47,-221.414 957.221,-83 876.478,-2.15861 813.685,-81.9424 700.844,-64"/>
</g>
<!-- \\Slothsoft\\Amber\\Assets\\EditorMain -->
<g id="node2" class="node"><title>\\Slothsoft\\Amber\\Assets\\EditorMain</title>
<polygon fill="none" stroke="black" points="1153.72,-952 1069.72,-952 1069.72,-916 1153.72,-916 1153.72,-952"/>
<text text-anchor="middle" x="1111.72" y="-931.2" font-family="Courier,monospace" font-size="11.00">EditorMain</text>
</g>
<!-- \\Slothsoft\\Amber\\Assets\\EditorMain&#45;&gt;\\Slothsoft\\Farah\\Module\\Node\\Asset\\AssetBase -->
<g id="edge2" class="edge"><title>\\Slothsoft\\Amber\\Assets\\EditorMain&#45;&gt;\\Slothsoft\\Farah\\Module\\Node\\Asset\\AssetBase</title>
<path fill="none" stroke="black" d="M1069.37,-931.598C1051.84,-928.345 1032.82,-921.414 1021.22,-907 906.07,-763.919 1087.32,-212.639 957.221,-83 876.286,-2.3506 813.685,-81.9424 700.844,-64"/>
</g>
<!-- \\Slothsoft\\Amber\\Assets\\EditorResourceContainerBase -->
<g id="node3" class="node"><title>\\Slothsoft\\Amber\\Assets\\EditorResourceContainerBase</title>
<polygon fill="none" stroke="black" points="799.344,-1060 600.344,-1060 600.344,-1024 799.344,-1024 799.344,-1060"/>
<text text-anchor="start" x="665.844" y="-1045.2" font-family="Courier,monospace" font-size="11.00">«abstract»</text>
<text text-anchor="start" x="608.344" y="-1033.2" font-family="Courier,monospace" font-size="11.00">EditorResourceContainerBase</text>
</g>
<!-- \\Slothsoft\\Amber\\Assets\\EditorResourceContainerBase&#45;&gt;\\Slothsoft\\Farah\\Module\\Node\\Asset\\AssetBase -->
<g id="edge3" class="edge"><title>\\Slothsoft\\Amber\\Assets\\EditorResourceContainerBase&#45;&gt;\\Slothsoft\\Farah\\Module\\Node\\Asset\\AssetBase</title>
<path fill="none" stroke="black" d="M679.685,-1023.72C601.093,-948.752 303.305,-664.68 212.609,-578.16"/>
<polygon fill="none" stroke="black" points="214.868,-575.479 205.217,-571.109 210.037,-580.544 214.868,-575.479"/>
</g>
<!-- \\Slothsoft\\Amber\\Assets\\RawContainer -->
<g id="node4" class="node"><title>\\Slothsoft\\Amber\\Assets\\RawContainer</title>
<polygon fill="none" stroke="black" points="1160.72,-1114 1062.72,-1114 1062.72,-1078 1160.72,-1078 1160.72,-1114"/>
<text text-anchor="middle" x="1111.72" y="-1093.2" font-family="Courier,monospace" font-size="11.00">RawContainer</text>
</g>
<!-- \\Slothsoft\\Amber\\Assets\\RawContainer&#45;&gt;\\Slothsoft\\Amber\\Assets\\EditorResourceContainerBase -->
<g id="edge4" class="edge"><title>\\Slothsoft\\Amber\\Assets\\RawContainer&#45;&gt;\\Slothsoft\\Amber\\Assets\\EditorResourceContainerBase</title>
<path fill="none" stroke="black" d="M1062.5,-1089.65C1000.74,-1081.51 891.894,-1067.17 809.698,-1056.34"/>
<polygon fill="none" stroke="black" points="809.93,-1052.84 799.558,-1055.01 809.015,-1059.78 809.93,-1052.84"/>
</g>
<!-- \\Slothsoft\\Amber\\Assets\\StylesheetContainer -->
<g id="node5" class="node"><title>\\Slothsoft\\Amber\\Assets\\StylesheetContainer</title>
<polygon fill="none" stroke="black" points="1184.22,-898 1039.22,-898 1039.22,-862 1184.22,-862 1184.22,-898"/>
<text text-anchor="middle" x="1111.72" y="-877.2" font-family="Courier,monospace" font-size="11.00">StylesheetContainer</text>
</g>
<!-- \\Slothsoft\\Amber\\Assets\\StylesheetContainer&#45;&gt;\\Slothsoft\\Farah\\Module\\Node\\Asset\\AssetBase -->
<g id="edge5" class="edge"><title>\\Slothsoft\\Amber\\Assets\\StylesheetContainer&#45;&gt;\\Slothsoft\\Farah\\Module\\Node\\Asset\\AssetBase</title>
<path fill="none" stroke="black" d="M1039.19,-867.485C1032.33,-863.79 1026.12,-859.056 1021.22,-853 913.208,-719.529 1079.17,-203.866 957.221,-83 876.068,-2.56991 813.685,-81.9424 700.844,-64"/>
</g>
<!-- \\Slothsoft\\Amber\\Assets\\Gfx -->
<g id="node6" class="node"><title>\\Slothsoft\\Amber\\Assets\\Gfx</title>
<polygon fill="none" stroke="black" points="1138.72,-844 1084.72,-844 1084.72,-808 1138.72,-808 1138.72,-844"/>
<text text-anchor="middle" x="1111.72" y="-823.2" font-family="Courier,monospace" font-size="11.00">Gfx</text>
</g>
<!-- \\Slothsoft\\Amber\\Assets\\Gfx&#45;&gt;\\Slothsoft\\Farah\\Module\\Node\\Asset\\AssetBase -->
<g id="edge6" class="edge"><title>\\Slothsoft\\Amber\\Assets\\Gfx&#45;&gt;\\Slothsoft\\Farah\\Module\\Node\\Asset\\AssetBase</title>
<path fill="none" stroke="black" d="M1084.47,-825.583C1063.93,-823.739 1036.39,-817.625 1021.22,-799 920.344,-675.136 1071.03,-195.097 957.221,-83 875.818,-2.82278 813.685,-81.9424 700.844,-64"/>
</g>
<!-- \\Slothsoft\\Amber\\Assets\\GfxContainer -->
<g id="node7" class="node"><title>\\Slothsoft\\Amber\\Assets\\GfxContainer</title>
<polygon fill="none" stroke="black" points="1160.72,-790 1062.72,-790 1062.72,-754 1160.72,-754 1160.72,-790"/>
<text text-anchor="middle" x="1111.72" y="-769.2" font-family="Courier,monospace" font-size="11.00">GfxContainer</text>
</g>
<!-- \\Slothsoft\\Amber\\Assets\\GfxContainer&#45;&gt;\\Slothsoft\\Farah\\Module\\Node\\Asset\\AssetBase -->
<g id="edge8" class="edge"><title>\\Slothsoft\\Amber\\Assets\\GfxContainer&#45;&gt;\\Slothsoft\\Farah\\Module\\Node\\Asset\\AssetBase</title>
<path fill="none" stroke="black" d="M1062.52,-768.007C1047.11,-764.274 1031.41,-757.422 1021.22,-745 927.475,-630.739 1062.89,-186.331 957.221,-83 875.529,-3.11752 813.685,-81.9424 700.844,-64"/>
</g>
<!-- \\Slothsoft\\Amber\\Assets\\Raw -->
<g id="node8" class="node"><title>\\Slothsoft\\Amber\\Assets\\Raw</title>
<polygon fill="none" stroke="black" points="1138.72,-736 1084.72,-736 1084.72,-700 1138.72,-700 1138.72,-736"/>
<text text-anchor="middle" x="1111.72" y="-715.2" font-family="Courier,monospace" font-size="11.00">Raw</text>
</g>
<!-- \\Slothsoft\\Amber\\Assets\\Raw&#45;&gt;\\Slothsoft\\Farah\\Module\\Node\\Asset\\AssetBase -->
<g id="edge13" class="edge"><title>\\Slothsoft\\Amber\\Assets\\Raw&#45;&gt;\\Slothsoft\\Farah\\Module\\Node\\Asset\\AssetBase</title>
<path fill="none" stroke="black" d="M1084.55,-717.519C1064.06,-715.638 1036.54,-709.505 1021.22,-691 934.603,-586.336 1054.76,-177.57 957.221,-83 875.19,-3.46542 813.685,-81.9424 700.844,-64"/>
</g>
<!-- \\Slothsoft\\Amber\\Assets\\Stylesheet -->
<g id="node9" class="node"><title>\\Slothsoft\\Amber\\Assets\\Stylesheet</title>
<polygon fill="none" stroke="black" points="1153.72,-682 1069.72,-682 1069.72,-646 1153.72,-646 1153.72,-682"/>
<text text-anchor="middle" x="1111.72" y="-661.2" font-family="Courier,monospace" font-size="11.00">Stylesheet</text>
</g>
<!-- \\Slothsoft\\Amber\\Assets\\Stylesheet&#45;&gt;\\Slothsoft\\Farah\\Module\\Node\\Asset\\AssetBase -->
<g id="edge14" class="edge"><title>\\Slothsoft\\Amber\\Assets\\Stylesheet&#45;&gt;\\Slothsoft\\Farah\\Module\\Node\\Asset\\AssetBase</title>
<path fill="none" stroke="black" d="M1069.33,-663.779C1052.01,-661.448 1033.17,-655.571 1021.22,-642 855.978,-454.308 1137.55,-256.251 957.221,-83 874.829,-3.84018 813.685,-81.9424 700.844,-64"/>
<path fill="none" stroke="black" d="M698.844,-64C642.424,-55.0288 490.477,-52.0359 442.467,-83 277.318,-189.513 210.173,-440.736 191.807,-524.937"/>
<polygon fill="none" stroke="black" points="188.366,-524.291 189.714,-534.8 195.214,-525.744 188.366,-524.291"/>
</g>
<!-- \\Slothsoft\\Amber\\Assets\\AmberdataContainer -->
<g id="node10" class="node"><title>\\Slothsoft\\Amber\\Assets\\AmberdataContainer</title>
<polygon fill="none" stroke="black" points="1180.72,-1060 1042.72,-1060 1042.72,-1024 1180.72,-1024 1180.72,-1060"/>
<text text-anchor="middle" x="1111.72" y="-1039.2" font-family="Courier,monospace" font-size="11.00">AmberdataContainer</text>
</g>
<!-- \\Slothsoft\\Amber\\Assets\\AmberdataContainer&#45;&gt;\\Slothsoft\\Amber\\Assets\\EditorResourceContainerBase -->
<g id="edge16" class="edge"><title>\\Slothsoft\\Amber\\Assets\\AmberdataContainer&#45;&gt;\\Slothsoft\\Amber\\Assets\\EditorResourceContainerBase</title>
<path fill="none" stroke="black" d="M1042.58,-1042C979.203,-1042 883.707,-1042 809.761,-1042"/>
<polygon fill="none" stroke="black" points="809.476,-1038.5 799.476,-1042 809.476,-1045.5 809.476,-1038.5"/>
</g>
<!-- \\Slothsoft\\Amber\\Controller\\EditorController -->
<g id="node11" class="node"><title>\\Slothsoft\\Amber\\Controller\\EditorController</title>
<polygon fill="none" stroke="black" points="1174.22,-1676 1049.22,-1676 1049.22,-1640 1174.22,-1640 1174.22,-1676"/>
<text text-anchor="middle" x="1111.72" y="-1655.2" font-family="Courier,monospace" font-size="11.00">EditorController</text>
</g>
<!-- \\Slothsoft\\Amber\\Mod\\ParameterFilter -->
<g id="node12" class="node"><title>\\Slothsoft\\Amber\\Mod\\ParameterFilter</title>
<polygon fill="none" stroke="black" points="1170.72,-1596 1052.72,-1596 1052.72,-1560 1170.72,-1560 1170.72,-1596"/>
<text text-anchor="middle" x="1111.72" y="-1575.2" font-family="Courier,monospace" font-size="11.00">ParameterFilter</text>
</g>
<!-- \\Slothsoft\\Farah\\Module\\ParameterFilters\\MapFilter -->
<g id="node25" class="node"><title>\\Slothsoft\\Farah\\Module\\ParameterFilters\\MapFilter</title>
<ellipse fill="none" stroke="black" cx="699.844" cy="-326" rx="198.465" ry="18"/>
<text text-anchor="middle" x="699.844" y="-322.3" font-family="Times New Roman,serif" font-size="14.00" fill="gray">\Slothsoft\Farah\Module\ParameterFilters\MapFilter</text>
</g>
<!-- \\Slothsoft\\Amber\\Mod\\ParameterFilter&#45;&gt;\\Slothsoft\\Farah\\Module\\ParameterFilters\\MapFilter -->
<g id="edge7" class="edge"><title>\\Slothsoft\\Amber\\Mod\\ParameterFilter&#45;&gt;\\Slothsoft\\Farah\\Module\\ParameterFilters\\MapFilter</title>
<path fill="none" stroke="black" d="M1052.43,-1569.32C1040.41,-1564.84 1029.04,-1558.11 1021.22,-1548 896.605,-1386.98 1033.13,-822.929 957.221,-634 907.282,-509.707 787.448,-398.159 731.098,-350.488"/>
<polygon fill="none" stroke="black" points="733.174,-347.662 723.26,-343.924 728.679,-353.028 733.174,-347.662"/>
</g>
<!-- \\Slothsoft\\Amber\\SavegameImplementations\\AmberArchiveExtractor -->
<g id="node13" class="node"><title>\\Slothsoft\\Amber\\SavegameImplementations\\AmberArchiveExtractor</title>
<polygon fill="none" stroke="black" points="1190.72,-1516 1032.72,-1516 1032.72,-1480 1190.72,-1480 1190.72,-1516"/>
<text text-anchor="middle" x="1111.72" y="-1495.2" font-family="Courier,monospace" font-size="11.00">AmberArchiveExtractor</text>
</g>
<!-- \\Slothsoft\\Savegame\\Node\\ArchiveParser\\ArchiveExtractorInterface -->
<g id="node26" class="node"><title>\\Slothsoft\\Savegame\\Node\\ArchiveParser\\ArchiveExtractorInterface</title>
<ellipse fill="none" stroke="black" cx="699.844" cy="-272" rx="257.254" ry="18"/>
<text text-anchor="middle" x="699.844" y="-268.3" font-family="Times New Roman,serif" font-size="14.00" fill="gray">\Slothsoft\Savegame\Node\ArchiveParser\ArchiveExtractorInterface</text>
</g>
<!-- \\Slothsoft\\Amber\\SavegameImplementations\\AmberArchiveExtractor&#45;&gt;\\Slothsoft\\Savegame\\Node\\ArchiveParser\\ArchiveExtractorInterface -->
<g id="edge9" class="edge"><title>\\Slothsoft\\Amber\\SavegameImplementations\\AmberArchiveExtractor&#45;&gt;\\Slothsoft\\Savegame\\Node\\ArchiveParser\\ArchiveExtractorInterface</title>
<path fill="none" stroke="black" stroke-dasharray="1,5" d="M1032.44,-1481.54C1028.24,-1478.57 1024.43,-1475.08 1021.22,-1471 860.031,-1265.94 1136.95,-488.023 957.221,-299 917.809,-257.55 853.856,-250.756 799.686,-254.346"/>
<polygon fill="none" stroke="black" points="799.388,-250.858 789.693,-255.131 799.936,-257.837 799.388,-250.858"/>
</g>
<!-- \\Slothsoft\\Amber\\SavegameImplementations\\AmberArchiveBuilder -->
<g id="node14" class="node"><title>\\Slothsoft\\Amber\\SavegameImplementations\\AmberArchiveBuilder</title>
<polygon fill="none" stroke="black" points="1184.22,-1462 1039.22,-1462 1039.22,-1426 1184.22,-1426 1184.22,-1462"/>
<text text-anchor="middle" x="1111.72" y="-1441.2" font-family="Courier,monospace" font-size="11.00">AmberArchiveBuilder</text>
</g>
<!-- \\Slothsoft\\Savegame\\Node\\ArchiveParser\\ArchiveBuilderInterface -->
<g id="node28" class="node"><title>\\Slothsoft\\Savegame\\Node\\ArchiveParser\\ArchiveBuilderInterface</title>
<ellipse fill="none" stroke="black" cx="699.844" cy="-218" rx="249.656" ry="18"/>
<text text-anchor="middle" x="699.844" y="-214.3" font-family="Times New Roman,serif" font-size="14.00" fill="gray">\Slothsoft\Savegame\Node\ArchiveParser\ArchiveBuilderInterface</text>
</g>
<!-- \\Slothsoft\\Amber\\SavegameImplementations\\AmberArchiveBuilder&#45;&gt;\\Slothsoft\\Savegame\\Node\\ArchiveParser\\ArchiveBuilderInterface -->
<g id="edge11" class="edge"><title>\\Slothsoft\\Amber\\SavegameImplementations\\AmberArchiveBuilder&#45;&gt;\\Slothsoft\\Savegame\\Node\\ArchiveParser\\ArchiveBuilderInterface</title>
<path fill="none" stroke="black" stroke-dasharray="1,5" d="M1038.92,-1429.16C1032.11,-1425.22 1025.99,-1420.26 1021.22,-1414 863.558,-1207.05 1136.51,-433.528 957.221,-245 917.661,-203.4 853.382,-196.709 799.085,-200.388"/>
<polygon fill="none" stroke="black" points="798.76,-196.903 789.071,-201.19 799.319,-203.88 798.76,-196.903"/>
</g>
<!-- \\Slothsoft\\Amber\\Executables\\ExecutableMerger -->
<g id="node15" class="node"><title>\\Slothsoft\\Amber\\Executables\\ExecutableMerger</title>
<polygon fill="none" stroke="black" points="1174.22,-1382 1049.22,-1382 1049.22,-1346 1174.22,-1346 1174.22,-1382"/>
<text text-anchor="middle" x="1111.72" y="-1361.2" font-family="Courier,monospace" font-size="11.00">ExecutableMerger</text>
</g>
<!-- \\Slothsoft\\Farah\\Module\\Executables\\ExecutableDOMWriterBase -->
<g id="node29" class="node"><title>\\Slothsoft\\Farah\\Module\\Executables\\ExecutableDOMWriterBase</title>
<ellipse fill="none" stroke="black" cx="699.844" cy="-164" rx="248.856" ry="18"/>
<text text-anchor="middle" x="699.844" y="-160.3" font-family="Times New Roman,serif" font-size="14.00" fill="gray">\Slothsoft\Farah\Module\Executables\ExecutableDOMWriterBase</text>
</g>
<!-- \\Slothsoft\\Amber\\Executables\\ExecutableMerger&#45;&gt;\\Slothsoft\\Farah\\Module\\Executables\\ExecutableDOMWriterBase -->
<g id="edge12" class="edge"><title>\\Slothsoft\\Amber\\Executables\\ExecutableMerger&#45;&gt;\\Slothsoft\\Farah\\Module\\Executables\\ExecutableDOMWriterBase</title>
<path fill="none" stroke="black" d="M1049.22,-1356.26C1038.41,-1352.16 1028.35,-1346.06 1021.22,-1337 863.472,-1136.57 1133.09,-375.733 957.221,-191 917.711,-149.498 853.595,-142.755 799.367,-146.384"/>
<polygon fill="none" stroke="black" points="799.057,-142.898 789.365,-147.176 799.61,-149.876 799.057,-142.898"/>
</g>
<!-- \\Slothsoft\\Amber\\Executables\\AmberExecutableCreator -->
<g id="node16" class="node"><title>\\Slothsoft\\Amber\\Executables\\AmberExecutableCreator</title>
<polygon fill="none" stroke="black" points="1194.22,-1328 1029.22,-1328 1029.22,-1292 1194.22,-1292 1194.22,-1328"/>
<text text-anchor="middle" x="1111.72" y="-1307.2" font-family="Courier,monospace" font-size="11.00">AmberExecutableCreator</text>
</g>
<!-- \\Slothsoft\\Savegame\\Executables\\SavegameExecutableCreator -->
<g id="node30" class="node"><title>\\Slothsoft\\Savegame\\Executables\\SavegameExecutableCreator</title>
<ellipse fill="none" stroke="black" cx="699.844" cy="-110" rx="237.458" ry="18"/>
<text text-anchor="middle" x="699.844" y="-106.3" font-family="Times New Roman,serif" font-size="14.00" fill="gray">\Slothsoft\Savegame\Executables\SavegameExecutableCreator</text>
</g>
<!-- \\Slothsoft\\Amber\\Executables\\AmberExecutableCreator&#45;&gt;\\Slothsoft\\Savegame\\Executables\\SavegameExecutableCreator -->
<g id="edge15" class="edge"><title>\\Slothsoft\\Amber\\Executables\\AmberExecutableCreator&#45;&gt;\\Slothsoft\\Savegame\\Executables\\SavegameExecutableCreator</title>
<path fill="none" stroke="black" d="M1033.56,-1291.72C1028.9,-1288.43 1024.7,-1284.56 1021.22,-1280 866.929,-1077.73 1132.65,-321.239 957.221,-137 917.49,-95.2724 852.884,-88.6848 798.469,-92.4472"/>
<polygon fill="none" stroke="black" points="798.118,-88.964 788.435,-93.264 798.686,-95.9409 798.118,-88.964"/>
</g>
<!-- \\Slothsoft\\Amber\\CLI\\AmbGfx -->
<g id="node17" class="node"><title>\\Slothsoft\\Amber\\CLI\\AmbGfx</title>
<polygon fill="none" stroke="black" points="1140.22,-1248 1083.22,-1248 1083.22,-1212 1140.22,-1212 1140.22,-1248"/>
<text text-anchor="middle" x="1111.72" y="-1227.2" font-family="Courier,monospace" font-size="11.00">AmbGfx</text>
</g>
<!-- \\Slothsoft\\Amber\\CLI\\AmbTool -->
<g id="node18" class="node"><title>\\Slothsoft\\Amber\\CLI\\AmbTool</title>
<polygon fill="none" stroke="black" points="1143.72,-1194 1079.72,-1194 1079.72,-1158 1143.72,-1158 1143.72,-1194"/>
<text text-anchor="middle" x="1111.72" y="-1173.2" font-family="Courier,monospace" font-size="11.00">AmbTool</text>
</g>
<!-- \\Slothsoft\\Amber\\ModResourceLocator -->
<g id="node19" class="node"><title>\\Slothsoft\\Amber\\ModResourceLocator</title>
<polygon fill="none" stroke="black" points="1180.72,-628 1042.72,-628 1042.72,-592 1180.72,-592 1180.72,-628"/>
<text text-anchor="middle" x="1111.72" y="-607.2" font-family="Courier,monospace" font-size="11.00">ModResourceLocator</text>
</g>
<!-- \\Slothsoft\\Amber\\ModController -->
<g id="node20" class="node"><title>\\Slothsoft\\Amber\\ModController</title>
<polygon fill="none" stroke="black" points="1163.72,-574 1059.72,-574 1059.72,-538 1163.72,-538 1163.72,-574"/>
<text text-anchor="middle" x="1111.72" y="-553.2" font-family="Courier,monospace" font-size="11.00">ModController</text>
</g>
<!-- \\Slothsoft\\Amber\\GraphicsManager -->
<g id="node21" class="node"><title>\\Slothsoft\\Amber\\GraphicsManager</title>
<polygon fill="none" stroke="black" points="1170.72,-520 1052.72,-520 1052.72,-484 1170.72,-484 1170.72,-520"/>
<text text-anchor="middle" x="1111.72" y="-499.2" font-family="Courier,monospace" font-size="11.00">GraphicsManager</text>
</g>
<!-- \\Slothsoft\\Amber\\ModResource -->
<g id="node22" class="node"><title>\\Slothsoft\\Amber\\ModResource</title>
<polygon fill="none" stroke="black" points="1157.22,-466 1066.22,-466 1066.22,-430 1157.22,-430 1157.22,-466"/>
<text text-anchor="middle" x="1111.72" y="-445.2" font-family="Courier,monospace" font-size="11.00">ModResource</text>
</g>
<!-- \\Slothsoft\\Core\\IO\\HTTPFile -->
<g id="node27" class="node"><title>\\Slothsoft\\Core\\IO\\HTTPFile</title>
<ellipse fill="none" stroke="black" cx="699.844" cy="-18" rx="118.079" ry="18"/>
<text text-anchor="middle" x="699.844" y="-14.3" font-family="Times New Roman,serif" font-size="14.00" fill="gray">\Slothsoft\Core\IO\HTTPFile</text>
</g>
<!-- \\Slothsoft\\Amber\\ModResource&#45;&gt;\\Slothsoft\\Core\\IO\\HTTPFile -->
<g id="edge10" class="edge"><title>\\Slothsoft\\Amber\\ModResource&#45;&gt;\\Slothsoft\\Core\\IO\\HTTPFile</title>
<path fill="none" stroke="black" d="M1065.83,-444.222C1049.6,-440.599 1032.51,-433.763 1021.22,-421 910.349,-295.682 1078.27,-165.524 957.221,-50 914.302,-9.03794 847.294,-1.86129 792.546,-4.49297"/>
<polygon fill="none" stroke="black" points="792.249,-1.00437 782.474,-5.09257 792.665,-7.992 792.249,-1.00437"/>
</g>
<!-- \\Slothsoft\\Amber\\ArchiveManager -->
<g id="node23" class="node"><title>\\Slothsoft\\Amber\\ArchiveManager</title>
<polygon fill="none" stroke="black" points="1167.22,-412 1056.22,-412 1056.22,-376 1167.22,-376 1167.22,-412"/>
<text text-anchor="middle" x="1111.72" y="-391.2" font-family="Courier,monospace" font-size="11.00">ArchiveManager</text>
</g>
</g>
</svg>
