<?xml version="1.0" encoding="UTF-8" standalone="no"?>
<!DOCTYPE svg PUBLIC "-//W3C//DTD SVG 1.1//EN"
 "http://www.w3.org/Graphics/SVG/1.1/DTD/svg11.dtd">
<!-- Generated by graphviz version 2.38.0 (20140413.2041)
 -->
<!-- Title: G Pages: 1 -->
<svg width="1242pt" height="1766pt"
 viewBox="0.00 0.00 1242.22 1766.00" xmlns="http://www.w3.org/2000/svg" xmlns:xlink="http://www.w3.org/1999/xlink">
<g id="graph0" class="graph" transform="scale(1 1) rotate(0) translate(4 1762)">
<title>G</title>
<polygon fill="white" stroke="none" points="-4,4 -4,-1762 1238.22,-1762 1238.22,4 -4,4"/>
<g id="clust1" class="cluster"><title>cluster_Global</title>
<path fill="none" stroke="gray" d="M580.344,-314C580.344,-314 1214.22,-314 1214.22,-314 1220.22,-314 1226.22,-320 1226.22,-326 1226.22,-326 1226.22,-1738 1226.22,-1738 1226.22,-1744 1220.22,-1750 1214.22,-1750 1214.22,-1750 580.344,-1750 580.344,-1750 574.344,-1750 568.344,-1744 568.344,-1738 568.344,-1738 568.344,-326 568.344,-326 568.344,-320 574.344,-314 580.344,-314"/>
<text text-anchor="middle" x="897.283" y="-1737.2" font-family="Times New Roman,serif" font-size="11.00" fill="gray">Global</text>
</g>
<g id="clust2" class="cluster"><title>cluster_\Slothsoft</title>
<path fill="none" stroke="gray" d="M588.344,-322C588.344,-322 1206.22,-322 1206.22,-322 1212.22,-322 1218.22,-328 1218.22,-334 1218.22,-334 1218.22,-1710 1218.22,-1710 1218.22,-1716 1212.22,-1722 1206.22,-1722 1206.22,-1722 588.344,-1722 588.344,-1722 582.344,-1722 576.344,-1716 576.344,-1710 576.344,-1710 576.344,-334 576.344,-334 576.344,-328 582.344,-322 588.344,-322"/>
<text text-anchor="middle" x="897.283" y="-1709.2" font-family="Times New Roman,serif" font-size="11.00" fill="gray">Slothsoft</text>
</g>
<g id="clust3" class="cluster"><title>cluster_\Slothsoft\Amber</title>
<path fill="none" stroke="gray" d="M596.344,-330C596.344,-330 1198.22,-330 1198.22,-330 1204.22,-330 1210.22,-336 1210.22,-342 1210.22,-342 1210.22,-1682 1210.22,-1682 1210.22,-1688 1204.22,-1694 1198.22,-1694 1198.22,-1694 596.344,-1694 596.344,-1694 590.344,-1694 584.344,-1688 584.344,-1682 584.344,-1682 584.344,-342 584.344,-342 584.344,-336 590.344,-330 596.344,-330"/>
<text text-anchor="middle" x="897.283" y="-1681.2" font-family="Times New Roman,serif" font-size="11.00" fill="gray">Amber</text>
</g>
<g id="clust4" class="cluster"><title>cluster_\Slothsoft\Amber\Assets</title>
<path fill="none" stroke="gray" d="M604.344,-1162C604.344,-1162 1180.22,-1162 1180.22,-1162 1186.22,-1162 1192.22,-1168 1192.22,-1174 1192.22,-1174 1192.22,-1654 1192.22,-1654 1192.22,-1660 1186.22,-1666 1180.22,-1666 1180.22,-1666 604.344,-1666 604.344,-1666 598.344,-1666 592.344,-1660 592.344,-1654 592.344,-1654 592.344,-1174 592.344,-1174 592.344,-1168 598.344,-1162 604.344,-1162"/>
<text text-anchor="middle" x="892.283" y="-1653.2" font-family="Times New Roman,serif" font-size="11.00" fill="gray">Assets</text>
</g>
<g id="clust6" class="cluster"><title>cluster_\Slothsoft\Amber\Mod</title>
<path fill="none" stroke="gray" d="M1056.72,-1082C1056.72,-1082 1166.72,-1082 1166.72,-1082 1172.72,-1082 1178.72,-1088 1178.72,-1094 1178.72,-1094 1178.72,-1142 1178.72,-1142 1178.72,-1148 1172.72,-1154 1166.72,-1154 1166.72,-1154 1056.72,-1154 1056.72,-1154 1050.72,-1154 1044.72,-1148 1044.72,-1142 1044.72,-1142 1044.72,-1094 1044.72,-1094 1044.72,-1088 1050.72,-1082 1056.72,-1082"/>
<text text-anchor="middle" x="1111.72" y="-1141.2" font-family="Times New Roman,serif" font-size="11.00" fill="gray">Mod</text>
</g>
<g id="clust5" class="cluster"><title>cluster_\Slothsoft\Amber\Controller</title>
<path fill="none" stroke="gray" d="M1053.22,-1002C1053.22,-1002 1170.22,-1002 1170.22,-1002 1176.22,-1002 1182.22,-1008 1182.22,-1014 1182.22,-1014 1182.22,-1062 1182.22,-1062 1182.22,-1068 1176.22,-1074 1170.22,-1074 1170.22,-1074 1053.22,-1074 1053.22,-1074 1047.22,-1074 1041.22,-1068 1041.22,-1062 1041.22,-1062 1041.22,-1014 1041.22,-1014 1041.22,-1008 1047.22,-1002 1053.22,-1002"/>
<text text-anchor="middle" x="1111.72" y="-1061.2" font-family="Times New Roman,serif" font-size="11.00" fill="gray">Controller</text>
</g>
<g id="clust8" class="cluster"><title>cluster_\Slothsoft\Amber\Executables</title>
<path fill="none" stroke="gray" d="M1033.22,-734C1033.22,-734 1190.22,-734 1190.22,-734 1196.22,-734 1202.22,-740 1202.22,-746 1202.22,-746 1202.22,-848 1202.22,-848 1202.22,-854 1196.22,-860 1190.22,-860 1190.22,-860 1033.22,-860 1033.22,-860 1027.22,-860 1021.22,-854 1021.22,-848 1021.22,-848 1021.22,-746 1021.22,-746 1021.22,-740 1027.22,-734 1033.22,-734"/>
<text text-anchor="middle" x="1111.72" y="-847.2" font-family="Times New Roman,serif" font-size="11.00" fill="gray">Executables</text>
</g>
<g id="clust7" class="cluster"><title>cluster_\Slothsoft\Amber\SavegameImplementations</title>
<path fill="none" stroke="gray" d="M1036.72,-868C1036.72,-868 1186.72,-868 1186.72,-868 1192.72,-868 1198.72,-874 1198.72,-880 1198.72,-880 1198.72,-982 1198.72,-982 1198.72,-988 1192.72,-994 1186.72,-994 1186.72,-994 1036.72,-994 1036.72,-994 1030.72,-994 1024.72,-988 1024.72,-982 1024.72,-982 1024.72,-880 1024.72,-880 1024.72,-874 1030.72,-868 1036.72,-868"/>
<text text-anchor="middle" x="1111.72" y="-981.2" font-family="Times New Roman,serif" font-size="11.00" fill="gray">SavegameImplementations</text>
</g>
<g id="clust9" class="cluster"><title>cluster_\Slothsoft\Amber\CLI</title>
<path fill="none" stroke="gray" d="M1083.72,-600C1083.72,-600 1139.72,-600 1139.72,-600 1145.72,-600 1151.72,-606 1151.72,-612 1151.72,-612 1151.72,-714 1151.72,-714 1151.72,-720 1145.72,-726 1139.72,-726 1139.72,-726 1083.72,-726 1083.72,-726 1077.72,-726 1071.72,-720 1071.72,-714 1071.72,-714 1071.72,-612 1071.72,-612 1071.72,-606 1077.72,-600 1083.72,-600"/>
<text text-anchor="middle" x="1111.72" y="-713.2" font-family="Times New Roman,serif" font-size="11.00" fill="gray">CLI</text>
</g>
<!-- \\Slothsoft\\Amber\\Assets\\Amberdata -->
<g id="node1" class="node"><title>\\Slothsoft\\Amber\\Assets\\Amberdata</title>
<polygon fill="none" stroke="black" points="1150.22,-1530 1073.22,-1530 1073.22,-1494 1150.22,-1494 1150.22,-1530"/>
<text text-anchor="middle" x="1111.72" y="-1509.2" font-family="Courier,monospace" font-size="11.00">Amberdata</text>
</g>
<!-- \\Slothsoft\\Farah\\Module\\Node\\Asset\\AssetBase -->
<g id="node24" class="node"><title>\\Slothsoft\\Farah\\Module\\Node\\Asset\\AssetBase</title>
<ellipse fill="none" stroke="black" cx="185.234" cy="-1471" rx="185.467" ry="18"/>
<text text-anchor="middle" x="185.234" y="-1467.3" font-family="Times New Roman,serif" font-size="14.00" fill="gray">\Slothsoft\Farah\Module\Node\Asset\AssetBase</text>
</g>
<!-- \\Slothsoft\\Amber\\Assets\\Amberdata&#45;&gt;\\Slothsoft\\Farah\\Module\\Node\\Asset\\AssetBase -->
<g id="edge1" class="edge"><title>\\Slothsoft\\Amber\\Assets\\Amberdata&#45;&gt;\\Slothsoft\\Farah\\Module\\Node\\Asset\\AssetBase</title>
<path fill="none" stroke="black" d="M1073.19,-1500.97C1057.14,-1496.18 1038.23,-1490.43 1021.22,-1485 878.079,-1439.29 849.971,-1358.55 700.844,-1377"/>
</g>
<!-- \\Slothsoft\\Amber\\Assets\\EditorMain -->
<g id="node2" class="node"><title>\\Slothsoft\\Amber\\Assets\\EditorMain</title>
<polygon fill="none" stroke="black" points="1153.72,-1476 1069.72,-1476 1069.72,-1440 1153.72,-1440 1153.72,-1476"/>
<text text-anchor="middle" x="1111.72" y="-1455.2" font-family="Courier,monospace" font-size="11.00">EditorMain</text>
</g>
<!-- \\Slothsoft\\Amber\\Assets\\EditorMain&#45;&gt;\\Slothsoft\\Farah\\Module\\Node\\Asset\\AssetBase -->
<g id="edge2" class="edge"><title>\\Slothsoft\\Amber\\Assets\\EditorMain&#45;&gt;\\Slothsoft\\Farah\\Module\\Node\\Asset\\AssetBase</title>
<path fill="none" stroke="black" d="M1069.46,-1446.42C980.414,-1422 772.471,-1368.14 700.844,-1377"/>
</g>
<!-- \\Slothsoft\\Amber\\Assets\\EditorResourceContainerBase -->
<g id="node3" class="node"><title>\\Slothsoft\\Amber\\Assets\\EditorResourceContainerBase</title>
<polygon fill="none" stroke="black" points="799.344,-1584 600.344,-1584 600.344,-1548 799.344,-1548 799.344,-1584"/>
<text text-anchor="start" x="665.844" y="-1569.2" font-family="Courier,monospace" font-size="11.00">«abstract»</text>
<text text-anchor="start" x="608.344" y="-1557.2" font-family="Courier,monospace" font-size="11.00">EditorResourceContainerBase</text>
</g>
<!-- \\Slothsoft\\Amber\\Assets\\EditorResourceContainerBase&#45;&gt;\\Slothsoft\\Farah\\Module\\Node\\Asset\\AssetBase -->
<g id="edge3" class="edge"><title>\\Slothsoft\\Amber\\Assets\\EditorResourceContainerBase&#45;&gt;\\Slothsoft\\Farah\\Module\\Node\\Asset\\AssetBase</title>
<path fill="none" stroke="black" d="M601.522,-1547.96C509.861,-1530.98 373.367,-1505.68 282.163,-1488.78"/>
<polygon fill="none" stroke="black" points="282.573,-1485.29 272.102,-1486.91 281.297,-1492.18 282.573,-1485.29"/>
</g>
<!-- \\Slothsoft\\Amber\\Assets\\RawContainer -->
<g id="node4" class="node"><title>\\Slothsoft\\Amber\\Assets\\RawContainer</title>
<polygon fill="none" stroke="black" points="1160.72,-1638 1062.72,-1638 1062.72,-1602 1160.72,-1602 1160.72,-1638"/>
<text text-anchor="middle" x="1111.72" y="-1617.2" font-family="Courier,monospace" font-size="11.00">RawContainer</text>
</g>
<!-- \\Slothsoft\\Amber\\Assets\\RawContainer&#45;&gt;\\Slothsoft\\Amber\\Assets\\EditorResourceContainerBase -->
<g id="edge4" class="edge"><title>\\Slothsoft\\Amber\\Assets\\RawContainer&#45;&gt;\\Slothsoft\\Amber\\Assets\\EditorResourceContainerBase</title>
<path fill="none" stroke="black" d="M1062.5,-1613.65C1000.74,-1605.51 891.894,-1591.17 809.698,-1580.34"/>
<polygon fill="none" stroke="black" points="809.93,-1576.84 799.558,-1579.01 809.015,-1583.78 809.93,-1576.84"/>
</g>
<!-- \\Slothsoft\\Amber\\Assets\\StylesheetContainer -->
<g id="node5" class="node"><title>\\Slothsoft\\Amber\\Assets\\StylesheetContainer</title>
<polygon fill="none" stroke="black" points="1184.22,-1422 1039.22,-1422 1039.22,-1386 1184.22,-1386 1184.22,-1422"/>
<text text-anchor="middle" x="1111.72" y="-1401.2" font-family="Courier,monospace" font-size="11.00">StylesheetContainer</text>
</g>
<!-- \\Slothsoft\\Amber\\Assets\\StylesheetContainer&#45;&gt;\\Slothsoft\\Farah\\Module\\Node\\Asset\\AssetBase -->
<g id="edge5" class="edge"><title>\\Slothsoft\\Amber\\Assets\\StylesheetContainer&#45;&gt;\\Slothsoft\\Farah\\Module\\Node\\Asset\\AssetBase</title>
<path fill="none" stroke="black" d="M1039.04,-1391.12C957.035,-1378.28 818.86,-1362.4 700.844,-1377"/>
</g>
<!-- \\Slothsoft\\Amber\\Assets\\Gfx -->
<g id="node6" class="node"><title>\\Slothsoft\\Amber\\Assets\\Gfx</title>
<polygon fill="none" stroke="black" points="1138.72,-1368 1084.72,-1368 1084.72,-1332 1138.72,-1332 1138.72,-1368"/>
<text text-anchor="middle" x="1111.72" y="-1347.2" font-family="Courier,monospace" font-size="11.00">Gfx</text>
</g>
<!-- \\Slothsoft\\Amber\\Assets\\Gfx&#45;&gt;\\Slothsoft\\Farah\\Module\\Node\\Asset\\AssetBase -->
<g id="edge6" class="edge"><title>\\Slothsoft\\Amber\\Assets\\Gfx&#45;&gt;\\Slothsoft\\Farah\\Module\\Node\\Asset\\AssetBase</title>
<path fill="none" stroke="black" d="M1084.25,-1350.69C1018.92,-1352.63 844.87,-1359.19 700.844,-1377"/>
</g>
<!-- \\Slothsoft\\Amber\\Assets\\GfxContainer -->
<g id="node7" class="node"><title>\\Slothsoft\\Amber\\Assets\\GfxContainer</title>
<polygon fill="none" stroke="black" points="1160.72,-1314 1062.72,-1314 1062.72,-1278 1160.72,-1278 1160.72,-1314"/>
<text text-anchor="middle" x="1111.72" y="-1293.2" font-family="Courier,monospace" font-size="11.00">GfxContainer</text>
</g>
<!-- \\Slothsoft\\Amber\\Assets\\GfxContainer&#45;&gt;\\Slothsoft\\Farah\\Module\\Node\\Asset\\AssetBase -->
<g id="edge8" class="edge"><title>\\Slothsoft\\Amber\\Assets\\GfxContainer&#45;&gt;\\Slothsoft\\Farah\\Module\\Node\\Asset\\AssetBase</title>
<path fill="none" stroke="black" d="M1062.5,-1307.88C986.258,-1326.13 832.94,-1360.66 700.844,-1377"/>
</g>
<!-- \\Slothsoft\\Amber\\Assets\\Raw -->
<g id="node8" class="node"><title>\\Slothsoft\\Amber\\Assets\\Raw</title>
<polygon fill="none" stroke="black" points="1138.72,-1260 1084.72,-1260 1084.72,-1224 1138.72,-1224 1138.72,-1260"/>
<text text-anchor="middle" x="1111.72" y="-1239.2" font-family="Courier,monospace" font-size="11.00">Raw</text>
</g>
<!-- \\Slothsoft\\Amber\\Assets\\Raw&#45;&gt;\\Slothsoft\\Farah\\Module\\Node\\Asset\\AssetBase -->
<g id="edge13" class="edge"><title>\\Slothsoft\\Amber\\Assets\\Raw&#45;&gt;\\Slothsoft\\Farah\\Module\\Node\\Asset\\AssetBase</title>
<path fill="none" stroke="black" d="M1084.41,-1249.69C1066.55,-1254.98 1042.4,-1262.24 1021.22,-1269 878.079,-1314.71 849.971,-1358.55 700.844,-1377"/>
</g>
<!-- \\Slothsoft\\Amber\\Assets\\Stylesheet -->
<g id="node9" class="node"><title>\\Slothsoft\\Amber\\Assets\\Stylesheet</title>
<polygon fill="none" stroke="black" points="1153.72,-1206 1069.72,-1206 1069.72,-1170 1153.72,-1170 1153.72,-1206"/>
<text text-anchor="middle" x="1111.72" y="-1185.2" font-family="Courier,monospace" font-size="11.00">Stylesheet</text>
</g>
<!-- \\Slothsoft\\Amber\\Assets\\Stylesheet&#45;&gt;\\Slothsoft\\Farah\\Module\\Node\\Asset\\AssetBase -->
<g id="edge14" class="edge"><title>\\Slothsoft\\Amber\\Assets\\Stylesheet&#45;&gt;\\Slothsoft\\Farah\\Module\\Node\\Asset\\AssetBase</title>
<path fill="none" stroke="black" d="M698.844,-1377C546.985,-1395.78 372.056,-1430.77 270.812,-1452.36"/>
<polygon fill="none" stroke="black" points="269.992,-1448.95 260.946,-1454.47 271.457,-1455.8 269.992,-1448.95"/>
<path fill="none" stroke="black" d="M1069.66,-1198.75C1054.26,-1203.21 1036.74,-1208.79 1021.22,-1215 873.079,-1274.27 859.196,-1357.41 700.844,-1377"/>
</g>
<!-- \\Slothsoft\\Amber\\Assets\\AmberdataContainer -->
<g id="node10" class="node"><title>\\Slothsoft\\Amber\\Assets\\AmberdataContainer</title>
<polygon fill="none" stroke="black" points="1180.72,-1584 1042.72,-1584 1042.72,-1548 1180.72,-1548 1180.72,-1584"/>
<text text-anchor="middle" x="1111.72" y="-1563.2" font-family="Courier,monospace" font-size="11.00">AmberdataContainer</text>
</g>
<!-- \\Slothsoft\\Amber\\Assets\\AmberdataContainer&#45;&gt;\\Slothsoft\\Amber\\Assets\\EditorResourceContainerBase -->
<g id="edge16" class="edge"><title>\\Slothsoft\\Amber\\Assets\\AmberdataContainer&#45;&gt;\\Slothsoft\\Amber\\Assets\\EditorResourceContainerBase</title>
<path fill="none" stroke="black" d="M1042.58,-1566C979.203,-1566 883.707,-1566 809.761,-1566"/>
<polygon fill="none" stroke="black" points="809.476,-1562.5 799.476,-1566 809.476,-1569.5 809.476,-1562.5"/>
</g>
<!-- \\Slothsoft\\Amber\\Controller\\EditorController -->
<g id="node11" class="node"><title>\\Slothsoft\\Amber\\Controller\\EditorController</title>
<polygon fill="none" stroke="black" points="1174.22,-1046 1049.22,-1046 1049.22,-1010 1174.22,-1010 1174.22,-1046"/>
<text text-anchor="middle" x="1111.72" y="-1025.2" font-family="Courier,monospace" font-size="11.00">EditorController</text>
</g>
<!-- \\Slothsoft\\Amber\\Mod\\ParameterFilter -->
<g id="node12" class="node"><title>\\Slothsoft\\Amber\\Mod\\ParameterFilter</title>
<polygon fill="none" stroke="black" points="1170.72,-1126 1052.72,-1126 1052.72,-1090 1170.72,-1090 1170.72,-1126"/>
<text text-anchor="middle" x="1111.72" y="-1105.2" font-family="Courier,monospace" font-size="11.00">ParameterFilter</text>
</g>
<!-- \\Slothsoft\\Farah\\Module\\ParameterFilters\\MapFilter -->
<g id="node25" class="node"><title>\\Slothsoft\\Farah\\Module\\ParameterFilters\\MapFilter</title>
<ellipse fill="none" stroke="black" cx="699.844" cy="-288" rx="198.465" ry="18"/>
<text text-anchor="middle" x="699.844" y="-284.3" font-family="Times New Roman,serif" font-size="14.00" fill="gray">\Slothsoft\Farah\Module\ParameterFilters\MapFilter</text>
</g>
<!-- \\Slothsoft\\Amber\\Mod\\ParameterFilter&#45;&gt;\\Slothsoft\\Farah\\Module\\ParameterFilters\\MapFilter -->
<g id="edge7" class="edge"><title>\\Slothsoft\\Amber\\Mod\\ParameterFilter&#45;&gt;\\Slothsoft\\Farah\\Module\\ParameterFilters\\MapFilter</title>
<path fill="none" stroke="black" d="M1052.27,-1096.49C1040.96,-1092.15 1029.94,-1086.19 1021.22,-1078 783.293,-854.35 717.511,-429.408 703.876,-316.262"/>
<polygon fill="none" stroke="black" points="707.349,-315.831 702.715,-306.303 700.396,-316.641 707.349,-315.831"/>
</g>
<!-- \\Slothsoft\\Amber\\SavegameImplementations\\AmberArchiveExtractor -->
<g id="node13" class="node"><title>\\Slothsoft\\Amber\\SavegameImplementations\\AmberArchiveExtractor</title>
<polygon fill="none" stroke="black" points="1190.72,-966 1032.72,-966 1032.72,-930 1190.72,-930 1190.72,-966"/>
<text text-anchor="middle" x="1111.72" y="-945.2" font-family="Courier,monospace" font-size="11.00">AmberArchiveExtractor</text>
</g>
<!-- \\Slothsoft\\Savegame\\Node\\ArchiveParser\\ArchiveExtractorInterface -->
<g id="node26" class="node"><title>\\Slothsoft\\Savegame\\Node\\ArchiveParser\\ArchiveExtractorInterface</title>
<ellipse fill="none" stroke="black" cx="699.844" cy="-234" rx="257.254" ry="18"/>
<text text-anchor="middle" x="699.844" y="-230.3" font-family="Times New Roman,serif" font-size="14.00" fill="gray">\Slothsoft\Savegame\Node\ArchiveParser\ArchiveExtractorInterface</text>
</g>
<!-- \\Slothsoft\\Amber\\SavegameImplementations\\AmberArchiveExtractor&#45;&gt;\\Slothsoft\\Savegame\\Node\\ArchiveParser\\ArchiveExtractorInterface -->
<g id="edge9" class="edge"><title>\\Slothsoft\\Amber\\SavegameImplementations\\AmberArchiveExtractor&#45;&gt;\\Slothsoft\\Savegame\\Node\\ArchiveParser\\ArchiveExtractorInterface</title>
<path fill="none" stroke="black" stroke-dasharray="1,5" d="M1032.63,-931.381C1028.39,-928.447 1024.52,-925.015 1021.22,-921 927.739,-807.094 1060.99,-365.625 957.221,-261 918.435,-221.892 857.69,-214.145 805.063,-216.645"/>
<polygon fill="none" stroke="black" points="804.769,-213.156 794.997,-217.25 805.189,-220.143 804.769,-213.156"/>
</g>
<!-- \\Slothsoft\\Amber\\SavegameImplementations\\AmberArchiveBuilder -->
<g id="node14" class="node"><title>\\Slothsoft\\Amber\\SavegameImplementations\\AmberArchiveBuilder</title>
<polygon fill="none" stroke="black" points="1184.22,-912 1039.22,-912 1039.22,-876 1184.22,-876 1184.22,-912"/>
<text text-anchor="middle" x="1111.72" y="-891.2" font-family="Courier,monospace" font-size="11.00">AmberArchiveBuilder</text>
</g>
<!-- \\Slothsoft\\Savegame\\Node\\ArchiveParser\\ArchiveBuilderInterface -->
<g id="node28" class="node"><title>\\Slothsoft\\Savegame\\Node\\ArchiveParser\\ArchiveBuilderInterface</title>
<ellipse fill="none" stroke="black" cx="699.844" cy="-180" rx="249.656" ry="18"/>
<text text-anchor="middle" x="699.844" y="-176.3" font-family="Times New Roman,serif" font-size="14.00" fill="gray">\Slothsoft\Savegame\Node\ArchiveParser\ArchiveBuilderInterface</text>
</g>
<!-- \\Slothsoft\\Amber\\SavegameImplementations\\AmberArchiveBuilder&#45;&gt;\\Slothsoft\\Savegame\\Node\\ArchiveParser\\ArchiveBuilderInterface -->
<g id="edge11" class="edge"><title>\\Slothsoft\\Amber\\SavegameImplementations\\AmberArchiveBuilder&#45;&gt;\\Slothsoft\\Savegame\\Node\\ArchiveParser\\ArchiveBuilderInterface</title>
<path fill="none" stroke="black" stroke-dasharray="1,5" d="M1039.18,-878.958C1032.33,-875.056 1026.12,-870.155 1021.22,-864 929.871,-749.225 1060.54,-311.131 957.221,-207 918.204,-167.676 856.985,-160.066 804.153,-162.696"/>
<polygon fill="none" stroke="black" points="803.813,-159.21 794.051,-163.326 804.249,-166.196 803.813,-159.21"/>
</g>
<!-- \\Slothsoft\\Amber\\Executables\\ExecutableMerger -->
<g id="node15" class="node"><title>\\Slothsoft\\Amber\\Executables\\ExecutableMerger</title>
<polygon fill="none" stroke="black" points="1174.22,-832 1049.22,-832 1049.22,-796 1174.22,-796 1174.22,-832"/>
<text text-anchor="middle" x="1111.72" y="-811.2" font-family="Courier,monospace" font-size="11.00">ExecutableMerger</text>
</g>
<!-- \\Slothsoft\\Farah\\Module\\Executables\\ExecutableDOMWriterBase -->
<g id="node29" class="node"><title>\\Slothsoft\\Farah\\Module\\Executables\\ExecutableDOMWriterBase</title>
<ellipse fill="none" stroke="black" cx="699.844" cy="-126" rx="248.856" ry="18"/>
<text text-anchor="middle" x="699.844" y="-122.3" font-family="Times New Roman,serif" font-size="14.00" fill="gray">\Slothsoft\Farah\Module\Executables\ExecutableDOMWriterBase</text>
</g>
<!-- \\Slothsoft\\Amber\\Executables\\ExecutableMerger&#45;&gt;\\Slothsoft\\Farah\\Module\\Executables\\ExecutableDOMWriterBase -->
<g id="edge12" class="edge"><title>\\Slothsoft\\Amber\\Executables\\ExecutableMerger&#45;&gt;\\Slothsoft\\Farah\\Module\\Executables\\ExecutableDOMWriterBase</title>
<path fill="none" stroke="black" d="M1049.08,-805.838C1038.41,-801.759 1028.45,-795.768 1021.22,-787 931.172,-677.716 1057.13,-253.346 957.221,-153 918.284,-113.894 857.378,-106.195 804.699,-108.721"/>
<polygon fill="none" stroke="black" points="804.395,-105.233 794.625,-109.331 804.818,-112.22 804.395,-105.233"/>
</g>
<!-- \\Slothsoft\\Amber\\Executables\\AmberExecutableCreator -->
<g id="node16" class="node"><title>\\Slothsoft\\Amber\\Executables\\AmberExecutableCreator</title>
<polygon fill="none" stroke="black" points="1194.22,-778 1029.22,-778 1029.22,-742 1194.22,-742 1194.22,-778"/>
<text text-anchor="middle" x="1111.72" y="-757.2" font-family="Courier,monospace" font-size="11.00">AmberExecutableCreator</text>
</g>
<!-- \\Slothsoft\\Savegame\\Executables\\SavegameExecutableCreator -->
<g id="node30" class="node"><title>\\Slothsoft\\Savegame\\Executables\\SavegameExecutableCreator</title>
<ellipse fill="none" stroke="black" cx="699.844" cy="-72" rx="237.458" ry="18"/>
<text text-anchor="middle" x="699.844" y="-68.3" font-family="Times New Roman,serif" font-size="14.00" fill="gray">\Slothsoft\Savegame\Executables\SavegameExecutableCreator</text>
</g>
<!-- \\Slothsoft\\Amber\\Executables\\AmberExecutableCreator&#45;&gt;\\Slothsoft\\Savegame\\Executables\\SavegameExecutableCreator -->
<g id="edge15" class="edge"><title>\\Slothsoft\\Amber\\Executables\\AmberExecutableCreator&#45;&gt;\\Slothsoft\\Savegame\\Executables\\SavegameExecutableCreator</title>
<path fill="none" stroke="black" d="M1034.19,-741.824C1029.32,-738.515 1024.9,-734.609 1021.22,-730 933.233,-619.898 1056.69,-198.852 957.221,-99 917.978,-59.605 856.439,-52.089 803.489,-54.7879"/>
<polygon fill="none" stroke="black" points="803.125,-51.3039 793.367,-55.4312 803.569,-58.2898 803.125,-51.3039"/>
</g>
<!-- \\Slothsoft\\Amber\\CLI\\AmbGfx -->
<g id="node17" class="node"><title>\\Slothsoft\\Amber\\CLI\\AmbGfx</title>
<polygon fill="none" stroke="black" points="1140.22,-698 1083.22,-698 1083.22,-662 1140.22,-662 1140.22,-698"/>
<text text-anchor="middle" x="1111.72" y="-677.2" font-family="Courier,monospace" font-size="11.00">AmbGfx</text>
</g>
<!-- \\Slothsoft\\Amber\\CLI\\AmbTool -->
<g id="node18" class="node"><title>\\Slothsoft\\Amber\\CLI\\AmbTool</title>
<polygon fill="none" stroke="black" points="1143.72,-644 1079.72,-644 1079.72,-608 1143.72,-608 1143.72,-644"/>
<text text-anchor="middle" x="1111.72" y="-623.2" font-family="Courier,monospace" font-size="11.00">AmbTool</text>
</g>
<!-- \\Slothsoft\\Amber\\ModResourceLocator -->
<g id="node19" class="node"><title>\\Slothsoft\\Amber\\ModResourceLocator</title>
<polygon fill="none" stroke="black" points="1180.72,-590 1042.72,-590 1042.72,-554 1180.72,-554 1180.72,-590"/>
<text text-anchor="middle" x="1111.72" y="-569.2" font-family="Courier,monospace" font-size="11.00">ModResourceLocator</text>
</g>
<!-- \\Slothsoft\\Amber\\ModController -->
<g id="node20" class="node"><title>\\Slothsoft\\Amber\\ModController</title>
<polygon fill="none" stroke="black" points="1163.72,-536 1059.72,-536 1059.72,-500 1163.72,-500 1163.72,-536"/>
<text text-anchor="middle" x="1111.72" y="-515.2" font-family="Courier,monospace" font-size="11.00">ModController</text>
</g>
<!-- \\Slothsoft\\Amber\\GraphicsManager -->
<g id="node21" class="node"><title>\\Slothsoft\\Amber\\GraphicsManager</title>
<polygon fill="none" stroke="black" points="1170.72,-482 1052.72,-482 1052.72,-446 1170.72,-446 1170.72,-482"/>
<text text-anchor="middle" x="1111.72" y="-461.2" font-family="Courier,monospace" font-size="11.00">GraphicsManager</text>
</g>
<!-- \\Slothsoft\\Amber\\ModResource -->
<g id="node22" class="node"><title>\\Slothsoft\\Amber\\ModResource</title>
<polygon fill="none" stroke="black" points="1157.22,-428 1066.22,-428 1066.22,-392 1157.22,-392 1157.22,-428"/>
<text text-anchor="middle" x="1111.72" y="-407.2" font-family="Courier,monospace" font-size="11.00">ModResource</text>
</g>
<!-- \\Slothsoft\\Core\\IO\\HTTPFile -->
<g id="node27" class="node"><title>\\Slothsoft\\Core\\IO\\HTTPFile</title>
<ellipse fill="none" stroke="black" cx="699.844" cy="-18" rx="118.079" ry="18"/>
<text text-anchor="middle" x="699.844" y="-14.3" font-family="Times New Roman,serif" font-size="14.00" fill="gray">\Slothsoft\Core\IO\HTTPFile</text>
</g>
<!-- \\Slothsoft\\Amber\\ModResource&#45;&gt;\\Slothsoft\\Core\\IO\\HTTPFile -->
<g id="edge10" class="edge"><title>\\Slothsoft\\Amber\\ModResource&#45;&gt;\\Slothsoft\\Core\\IO\\HTTPFile</title>
<path fill="none" stroke="black" d="M1065.93,-406.125C1049.72,-402.49 1032.62,-395.671 1021.22,-383 918.982,-269.321 1069.68,-148.577 957.221,-45 911.973,-3.32638 841.409,1.3814 785.757,-3.19577"/>
<polygon fill="none" stroke="black" points="785.179,0.265473 775.549,-4.15166 785.831,-6.70404 785.179,0.265473"/>
</g>
<!-- \\Slothsoft\\Amber\\ArchiveManager -->
<g id="node23" class="node"><title>\\Slothsoft\\Amber\\ArchiveManager</title>
<polygon fill="none" stroke="black" points="1167.22,-374 1056.22,-374 1056.22,-338 1167.22,-338 1167.22,-374"/>
<text text-anchor="middle" x="1111.72" y="-353.2" font-family="Courier,monospace" font-size="11.00">ArchiveManager</text>
</g>
</g>
</svg>
